<?xml version="1.0" encoding="utf-8"?>
<!-- Generator: Adobe Illustrator 16.0.0, SVG Export Plug-In . SVG Version: 6.00 Build 0)  -->
<!DOCTYPE svg PUBLIC "-//W3C//DTD SVG 1.1//EN" "http://www.w3.org/Graphics/SVG/1.1/DTD/svg11.dtd">
<svg version="1.1" id="Capa_1" xmlns="http://www.w3.org/2000/svg" xmlns:xlink="http://www.w3.org/1999/xlink" x="0px" y="0px"
	 width="142.7px" height="186.29px" viewBox="0 0 142.7 186.29" enable-background="new 0 0 142.7 186.29" xml:space="preserve">
<g>
	<g>
		<path d="M29.674,184.702c-3.588-4.461-11.084-16.303-15.259-26.049h0.001C1.333,129.821-2.88,98.7,1.893,66.157
			c2.992-20.419,10.018-40.135,20.879-58.6c0.791-1.342,1.559-2.529,2.345-3.632c1.761-2.454,4.485-3.92,7.292-3.92
			c1.604,0,3.158,0.475,4.498,1.375c3.843,2.583,4.912,7.304,2.661,11.747c-1.245,2.457-2.57,4.928-3.851,7.318
			c-3.043,5.673-6.189,11.539-8.434,17.586c-15.887,42.833-13.038,84.814,8.473,124.778c0.129,0.24,0.227,0.484,0.295,0.674
			c2.223,3.502,5.762,10.293,7.234,14.27c0.546,1.473,0.42,3.092-0.355,4.558c-0.92,1.743-2.642,3.073-4.604,3.562
			c-1.064,0.265-2.384,0.416-3.617,0.416C32.995,186.288,30.729,186.011,29.674,184.702z M26.742,5.09
			c-0.751,1.052-1.485,2.192-2.247,3.483C13.764,26.813,6.825,46.285,3.87,66.448c-4.718,32.167-0.553,62.921,12.378,91.405
			l-0.128,0.069l0.133-0.057c4.106,9.584,11.463,21.209,14.979,25.581c0.313,0.388,1.41,0.839,3.479,0.839
			c1.078,0,2.221-0.129,3.135-0.356c1.397-0.347,2.67-1.325,3.318-2.554c0.357-0.678,0.689-1.734,0.248-2.93
			c-1.42-3.835-4.986-10.666-7.107-13.982L34.2,164.25c-0.059-0.17-0.122-0.338-0.206-0.494
			c-21.793-40.49-24.683-83.024-8.585-126.42c2.292-6.175,5.471-12.103,8.545-17.835c1.275-2.38,2.596-4.84,3.829-7.277
			c1.801-3.555,1.019-7.16-1.992-9.183c-1.009-0.678-2.179-1.036-3.383-1.036C30.246,2.005,28.126,3.159,26.742,5.09z"/>
	</g>
	<path d="M56.524,160.502c2.642,4.269,5.955,8.22,12.269,8.22c0.539,0,1.104-0.028,1.679-0.085c5.11-0.504,6.061-3.453,5.957-5.838
		c-0.101-2.309-1.004-4.942-2.42-7.045C52.924,124.379,48.123,90.692,59.737,55.627c2.203-6.662,5.703-13.067,9.088-19.261
		c1.406-2.57,2.858-5.229,4.203-7.876c2.367-4.656,1.521-9.065-2.264-11.793c-1.453-1.047-3.123-1.601-4.83-1.601
		c-2.394,0-4.769,1.091-6.688,3.072l-0.082,0.097c-0.053,0.071-0.128,0.154-0.212,0.25c-0.287,0.327-0.681,0.774-0.956,1.333
		c-1.568,3.2-3.293,6.419-4.96,9.532c-3.733,6.973-7.596,14.182-10.041,21.757C30.674,89.286,35.227,126.083,56.524,160.502z"/>
	<g>
		<path d="M93.903,149.36c-11.442-13.85-18.419-30.672-20.178-48.648C71.474,77.735,77.182,56.5,90.694,37.597
			c0.992-1.387,1.852-2.471,2.703-3.409c3.854-4.251,8.209-4.808,12.145-1.594c4.029,3.292,4.396,8.129,0.959,12.623
			c-10.205,13.339-15.555,28.32-15.9,44.528c-0.389,18.054,5.355,34.585,17.069,49.136c3.851,4.779,3.941,9.797,0.234,13.098
			c-1.579,1.404-3.332,2.116-5.211,2.116l0,0C99.905,154.095,96.965,152.523,93.903,149.36z M94.877,35.533
			c-0.798,0.88-1.611,1.906-2.557,3.229C79.1,57.259,73.514,78.037,75.717,100.518c1.719,17.578,8.541,34.029,19.676,47.511
			c4.231,4.364,8.033,5.257,11.181,2.456c2.871-2.559,2.698-6.427-0.462-10.35c-12.018-14.928-17.91-31.895-17.512-50.433
			c0.354-16.641,5.843-32.017,16.312-45.7c2.795-3.653,2.563-7.246-0.636-9.859c-1.317-1.076-2.649-1.621-3.96-1.621
			C98.518,32.522,96.69,33.535,94.877,35.533z"/>
	</g>
	<g>
		<path d="M127.373,135.651c-0.712-0.65-1.397-1.329-2.085-2.008c-0.324-0.322-0.65-0.645-0.98-0.964
			c-11.527-11.249-17.881-26.988-17.431-43.179c0.445-16.018,7.535-31.17,19.453-41.573c1.95-1.702,4.274-2.64,6.543-2.64
			c2.364,0,4.565,1.005,6.196,2.828c3.4,3.792,3.016,8.749-0.955,12.332c-9.145,8.249-14.102,19.38-13.958,31.341
			c0.144,11.975,5.54,23.41,14.805,31.373c2.276,1.955,3.562,4.209,3.716,6.52c0.14,2.092-0.65,4.166-2.285,6
			c-1.695,1.895-3.84,2.895-6.201,2.896l0,0C131.823,138.577,129.465,137.564,127.373,135.651z M127.645,49.436
			c-11.498,10.036-18.338,24.66-18.769,40.121c-0.434,15.635,5.7,30.832,16.827,41.689c0.332,0.324,0.662,0.65,0.991,0.977
			c0.668,0.66,1.336,1.32,2.028,1.953c1.718,1.57,3.608,2.4,5.468,2.4c1.776,0,3.405-0.771,4.708-2.229
			c1.268-1.422,1.884-2.99,1.781-4.534c-0.119-1.763-1.164-3.537-3.023-5.134c-9.701-8.34-15.352-20.319-15.501-32.866
			c-0.151-12.544,5.04-24.211,14.616-32.851c3.136-2.828,3.451-6.562,0.806-9.513c-1.267-1.414-2.894-2.162-4.706-2.162
			C131.085,47.288,129.229,48.05,127.645,49.436z"/>
	</g>
</g>
</svg>
