<?xml version="1.0" encoding="utf-8"?>
<!-- Generator: Adobe Illustrator 16.0.0, SVG Export Plug-In . SVG Version: 6.00 Build 0)  -->
<!DOCTYPE svg PUBLIC "-//W3C//DTD SVG 1.1//EN" "http://www.w3.org/Graphics/SVG/1.1/DTD/svg11.dtd">
<svg version="1.1" id="Capa_1" xmlns="http://www.w3.org/2000/svg" xmlns:xlink="http://www.w3.org/1999/xlink" x="0px" y="0px"
	 width="142.7px" height="186.29px" viewBox="0 0 142.7 186.29" enable-background="new 0 0 142.7 186.29" xml:space="preserve">
<g>
	<g>
		<path d="M107.971,186.287c-1.233,0-2.552-0.151-3.617-0.416c-1.962-0.487-3.683-1.818-4.604-3.561
			c-0.775-1.466-0.901-3.085-0.355-4.558c1.472-3.976,5.012-10.767,7.235-14.269c0.068-0.189,0.166-0.434,0.295-0.674
			c21.51-39.964,24.359-81.945,8.472-124.778c-2.244-6.047-5.39-11.913-8.433-17.586c-1.281-2.39-2.606-4.861-3.851-7.318
			c-2.251-4.443-1.182-9.164,2.661-11.747c1.34-0.9,2.895-1.375,4.498-1.375c2.806,0,5.531,1.466,7.292,3.92
			c0.786,1.103,1.553,2.29,2.344,3.632c10.862,18.465,17.888,38.181,20.88,58.6c4.773,32.543,0.56,63.664-12.524,92.496h0.001
			c-4.174,9.746-11.671,21.588-15.258,26.048C111.952,186.011,109.686,186.287,107.971,186.287z M110.273,2.005
			c-1.204,0-2.374,0.358-3.383,1.036c-3.011,2.023-3.793,5.628-1.992,9.183c1.233,2.437,2.553,4.897,3.829,7.277
			c3.074,5.732,6.253,11.66,8.545,17.835c16.097,43.396,13.208,85.93-8.585,126.421c-0.084,0.156-0.147,0.324-0.206,0.493
			l-0.103,0.213c-2.121,3.317-5.688,10.148-7.108,13.983c-0.442,1.195-0.109,2.252,0.248,2.929c0.649,1.229,1.921,2.207,3.318,2.554
			c0.914,0.228,2.057,0.357,3.135,0.357c2.068,0,3.166-0.452,3.478-0.839c3.517-4.372,10.873-15.997,14.979-25.581l0.133,0.057
			l-0.128-0.07c12.931-28.484,17.096-59.237,12.378-91.405c-2.955-20.163-9.895-39.635-20.625-57.875
			c-0.761-1.291-1.496-2.431-2.247-3.483C114.554,3.159,112.435,2.005,110.273,2.005z"/>
	</g>
	<path d="M99.685,51.137c-2.445-7.575-6.307-14.784-10.041-21.757c-1.667-3.113-3.391-6.332-4.96-9.532
		c-0.276-0.559-0.669-1.006-0.956-1.333c-0.084-0.096-0.159-0.179-0.212-0.25l-0.082-0.097c-1.919-1.981-4.294-3.072-6.688-3.072
		c-1.706,0-3.376,0.554-4.83,1.601c-3.784,2.728-4.63,7.137-2.263,11.793c1.345,2.647,2.797,5.306,4.203,7.876
		c3.385,6.194,6.885,12.599,9.088,19.261c11.614,35.065,6.813,68.753-14.271,100.127c-1.416,2.103-2.32,4.736-2.42,7.045
		c-0.104,2.385,0.846,5.334,5.957,5.838c0.574,0.057,1.139,0.085,1.678,0.085c6.313,0,9.627-3.951,12.269-8.22
		C107.454,126.082,112.006,89.286,99.685,51.137z"/>
	<g>
		<path d="M39.988,154.095L39.988,154.095c-1.879,0-3.632-0.712-5.211-2.116c-3.707-3.301-3.616-8.319,0.234-13.098
			c11.714-14.55,17.458-31.082,17.07-49.136c-0.346-16.208-5.696-31.189-15.901-44.528c-3.438-4.494-3.07-9.331,0.959-12.623
			c3.935-3.214,8.29-2.657,12.145,1.594c0.851,0.938,1.71,2.022,2.703,3.409c13.511,18.903,19.22,40.138,16.968,63.115
			c-1.758,17.976-8.735,34.798-20.177,48.648C45.715,152.523,42.776,154.095,39.988,154.095z M42.365,32.522
			c-1.311,0-2.643,0.545-3.96,1.621c-3.199,2.613-3.431,6.206-0.636,9.859c10.469,13.683,15.957,29.059,16.312,45.7
			c0.398,18.538-5.494,35.506-17.512,50.433c-3.161,3.923-3.333,7.792-0.462,10.35c3.148,2.801,6.949,1.908,11.181-2.456
			c11.134-13.482,17.956-29.933,19.676-47.511c2.203-22.481-3.383-43.259-16.604-61.756c-0.946-1.323-1.759-2.349-2.557-3.229
			C45.991,33.535,44.162,32.522,42.365,32.522z"/>
	</g>
	<g>
		<path d="M8.491,138.576C8.491,138.576,8.491,138.576,8.491,138.576c-2.362-0.001-4.506-1.002-6.201-2.896
			c-1.635-1.834-2.425-3.908-2.285-6c0.154-2.311,1.439-4.564,3.715-6.519c9.265-7.964,14.661-19.398,14.805-31.373
			c0.144-11.961-4.813-23.092-13.958-31.341c-3.971-3.583-4.355-8.54-0.955-12.332c1.631-1.823,3.832-2.828,6.196-2.828
			c2.269,0,4.593,0.938,6.543,2.64C28.269,58.33,35.359,73.482,35.804,89.5c0.45,16.191-5.903,31.93-17.431,43.179
			c-0.33,0.32-0.655,0.642-0.98,0.964c-0.687,0.679-1.373,1.357-2.085,2.008C13.216,137.564,10.858,138.576,8.491,138.576z
			 M9.809,47.288c-1.813,0-3.44,0.748-4.706,2.162c-2.646,2.951-2.33,6.685,0.805,9.513c9.577,8.64,14.768,20.307,14.617,32.851
			c-0.15,12.547-5.8,24.527-15.501,32.866c-1.86,1.597-2.905,3.372-3.023,5.134c-0.103,1.544,0.513,3.112,1.781,4.534
			c1.303,1.457,2.932,2.229,4.708,2.229c1.859,0,3.75-0.83,5.468-2.401c0.692-0.633,1.36-1.293,2.028-1.953
			c0.329-0.326,0.659-0.652,0.991-0.976c11.127-10.858,17.261-26.055,16.827-41.69c-0.43-15.461-7.27-30.085-18.768-40.121
			C13.451,48.05,11.595,47.288,9.809,47.288z"/>
	</g>
</g>
</svg>
