<?xml version="1.0" encoding="utf-8"?>
<!-- Generator: Adobe Illustrator 16.0.0, SVG Export Plug-In . SVG Version: 6.00 Build 0)  -->
<!DOCTYPE svg PUBLIC "-//W3C//DTD SVG 1.1//EN" "http://www.w3.org/Graphics/SVG/1.1/DTD/svg11.dtd">
<svg version="1.1" id="Capa_1" xmlns="http://www.w3.org/2000/svg" xmlns:xlink="http://www.w3.org/1999/xlink" x="0px" y="0px"
	 width="142.7px" height="186.29px" viewBox="0 0 142.7 186.29" enable-background="new 0 0 142.7 186.29" xml:space="preserve">
<g>
	<g>
		<path d="M29.684,184.695c-3.589-4.462-11.087-16.306-15.258-26.048l0,0C1.342,129.818-2.871,98.7,1.902,66.154
			C4.894,45.736,11.919,26.02,22.783,7.553c0.795-1.348,1.562-2.535,2.345-3.632C26.887,1.466,29.613,0,32.419,0
			c1.602,0,3.158,0.477,4.496,1.375c3.845,2.583,4.912,7.304,2.66,11.746c-1.244,2.461-2.571,4.934-3.854,7.326
			c-3.041,5.671-6.186,11.534-8.429,17.578c-15.888,42.834-13.037,84.815,8.473,124.778c0.106,0.195,0.2,0.412,0.294,0.672
			c2.221,3.499,5.762,10.289,7.236,14.27c0.546,1.475,0.419,3.094-0.355,4.56c-0.922,1.743-2.643,3.073-4.604,3.56
			c-1.065,0.264-2.384,0.415-3.615,0.415C33.006,186.279,30.74,186.004,29.684,184.695z M26.752,5.086
			c-0.748,1.046-1.483,2.186-2.247,3.482C13.775,26.811,6.835,46.283,3.88,66.444c-4.719,32.169-0.553,62.922,12.379,91.402
			l-0.131,0.07l0.136-0.058c4.103,9.58,11.46,21.207,14.979,25.581c0.312,0.387,1.41,0.839,3.479,0.839
			c1.077,0,2.221-0.129,3.135-0.356c1.396-0.346,2.668-1.324,3.316-2.553c0.357-0.677,0.691-1.734,0.249-2.929
			c-1.423-3.84-4.989-10.671-7.108-13.983l-0.103-0.213c-0.06-0.17-0.122-0.336-0.206-0.492
			c-21.794-40.49-24.684-83.025-8.586-126.421c2.291-6.174,5.468-12.098,8.541-17.828c1.277-2.382,2.599-4.845,3.833-7.284
			c1.802-3.555,1.021-7.16-1.991-9.183C34.793,2.358,33.623,2,32.419,2C30.256,2,28.137,3.154,26.752,5.086z"/>
	</g>
	<g>
		<path d="M56.537,160.497C35.236,126.077,30.684,89.28,43.005,51.131c2.445-7.575,6.308-14.786,10.043-21.76
			c1.667-3.112,3.39-6.33,4.959-9.528c0.275-0.56,0.668-1.007,0.955-1.334c0.085-0.096,0.158-0.179,0.212-0.249l0.082-0.097
			c1.918-1.981,4.294-3.072,6.688-3.072c1.707,0,3.377,0.553,4.83,1.6c3.784,2.728,4.63,7.137,2.263,11.794
			c-1.344,2.646-2.796,5.304-4.2,7.873c-3.387,6.196-6.887,12.601-9.09,19.265c-11.614,35.066-6.813,68.754,14.271,100.127
			c1.417,2.104,2.321,4.736,2.421,7.045c0.104,2.385-0.846,5.334-5.955,5.838c-0.574,0.057-1.14,0.084-1.679,0.084l0,0
			C62.492,168.717,59.178,164.767,56.537,160.497z M60.732,19.518c-0.072,0.091-0.162,0.197-0.265,0.313
			c-0.226,0.256-0.507,0.576-0.665,0.897c-1.583,3.229-3.314,6.462-4.99,9.59c-3.693,6.896-7.511,14.026-9.902,21.431
			c-12.133,37.564-7.648,73.798,13.33,107.698c2.698,4.365,5.529,7.272,10.566,7.272c0.473,0,0.973-0.025,1.482-0.075
			c3.786-0.373,4.224-2.112,4.153-3.763c-0.084-1.955-0.863-4.202-2.082-6.014C50.912,124.954,46.031,90.679,57.85,54.996
			c2.259-6.836,5.804-13.323,9.231-19.596c1.398-2.556,2.843-5.2,4.174-7.82c1.909-3.756,1.308-7.133-1.65-9.265
			c-1.109-0.8-2.376-1.223-3.658-1.223C64.113,17.092,62.262,17.952,60.732,19.518z"/>
	</g>
	<g>
		<path d="M93.915,149.356c-11.442-13.85-18.42-30.672-20.178-48.648c-2.251-22.976,3.457-44.21,16.969-63.115
			c0.994-1.39,1.853-2.473,2.701-3.409c3.857-4.253,8.211-4.81,12.146-1.595c4.029,3.292,4.396,8.129,0.959,12.623
			c-10.205,13.34-15.555,28.321-15.9,44.528c-0.39,18.053,5.354,34.586,17.068,49.135c3.852,4.781,3.941,9.799,0.234,13.099
			c-1.579,1.403-3.332,2.116-5.213,2.116l0,0C99.915,154.09,96.975,152.518,93.915,149.356z M94.889,35.527
			c-0.795,0.877-1.609,1.904-2.557,3.229c-13.221,18.499-18.807,39.277-16.605,61.757c1.721,17.577,8.542,34.028,19.676,47.511
			c2.618,2.698,5.073,4.066,7.299,4.066c0.002,0,0.002,0,0.002,0c1.373,0,2.681-0.543,3.882-1.61
			c2.872-2.558,2.7-6.426-0.462-10.351c-12.02-14.926-17.91-31.895-17.512-50.433c0.355-16.639,5.844-32.015,16.313-45.7
			c2.794-3.653,2.561-7.247-0.637-9.859c-1.316-1.075-2.649-1.621-3.961-1.621C98.53,32.517,96.7,33.529,94.889,35.527z"/>
	</g>
	<path d="M124.319,132.674c0.33,0.32,0.655,0.642,0.979,0.964c0.688,0.679,1.374,1.358,2.085,2.008
		c2.092,1.912,4.449,2.924,6.816,2.924c2.362,0,4.506-1.002,6.201-2.896c1.635-1.834,2.424-3.908,2.284-6
		c-0.153-2.312-1.438-4.565-3.715-6.52c-9.265-7.964-14.661-19.398-14.806-31.371c-0.144-11.961,4.813-23.092,13.957-31.343
		c3.973-3.583,4.354-8.539,0.955-12.332c-1.631-1.822-3.832-2.827-6.194-2.827c-2.271,0-4.595,0.938-6.544,2.64
		c-11.917,10.403-19.008,25.556-19.451,41.575C106.437,105.688,112.792,121.424,124.319,132.674z"/>
</g>
</svg>
