<?xml version="1.0" encoding="utf-8"?>
<!-- Generator: Adobe Illustrator 16.0.0, SVG Export Plug-In . SVG Version: 6.00 Build 0)  -->
<!DOCTYPE svg PUBLIC "-//W3C//DTD SVG 1.1//EN" "http://www.w3.org/Graphics/SVG/1.1/DTD/svg11.dtd">
<svg version="1.1" id="Capa_1" xmlns="http://www.w3.org/2000/svg" xmlns:xlink="http://www.w3.org/1999/xlink" x="0px" y="0px"
	 width="142.7px" height="186.29px" viewBox="0 0 142.7 186.29" enable-background="new 0 0 142.7 186.29" xml:space="preserve">
<g>
	<path d="M140.789,66.158c-2.992-20.419-10.018-40.135-20.88-58.6c-0.791-1.342-1.558-2.529-2.344-3.632
		c-1.761-2.455-4.486-3.92-7.292-3.92c-1.604,0-3.158,0.476-4.498,1.375c-3.843,2.583-4.912,7.303-2.661,11.747
		c1.244,2.458,2.569,4.929,3.851,7.318c3.043,5.673,6.188,11.539,8.433,17.586c15.888,42.833,13.038,84.814-8.472,124.778
		c-0.129,0.24-0.227,0.484-0.295,0.674c-2.224,3.502-5.764,10.293-7.235,14.269c-0.546,1.473-0.42,3.092,0.355,4.558
		c0.921,1.742,2.642,3.073,4.604,3.561c1.065,0.265,2.384,0.416,3.617,0.416c1.715,0,3.98-0.275,5.036-1.585
		c3.587-4.46,11.084-16.302,15.258-26.048h-0.001C141.348,129.822,145.562,98.702,140.789,66.158z"/>
	<g>
		<path d="M73.886,168.722L73.886,168.722c-0.539,0-1.104-0.028-1.678-0.085c-5.111-0.504-6.06-3.453-5.957-5.838
			c0.1-2.309,1.005-4.942,2.42-7.045C89.756,124.38,94.557,90.693,82.943,55.627c-2.203-6.662-5.703-13.067-9.088-19.261
			c-1.405-2.571-2.858-5.229-4.203-7.876c-2.367-4.656-1.521-9.065,2.263-11.793c1.454-1.047,3.124-1.601,4.83-1.601
			c2.395,0,4.77,1.091,6.688,3.072l0.082,0.097c0.053,0.07,0.128,0.153,0.212,0.25c0.287,0.327,0.68,0.774,0.956,1.333
			c1.569,3.2,3.293,6.419,4.96,9.532c3.734,6.973,7.596,14.182,10.041,21.757c12.321,38.149,7.769,74.945-13.53,109.366
			C83.513,164.771,80.199,168.722,73.886,168.722z M76.746,17.096c-1.284,0-2.55,0.423-3.661,1.223
			c-2.957,2.132-3.559,5.509-1.649,9.265c1.331,2.621,2.776,5.266,4.174,7.823c3.428,6.272,6.973,12.758,9.231,19.592
			c11.819,35.683,6.938,69.958-14.509,101.872c-1.219,1.811-1.997,4.059-2.082,6.015c-0.072,1.65,0.366,3.389,4.154,3.762
			c0.51,0.05,1.008,0.075,1.482,0.075c5.036,0,7.867-2.907,10.567-7.272c20.977-33.898,25.461-70.133,13.329-107.699
			c-2.391-7.403-6.209-14.532-9.901-21.427c-1.676-3.128-3.408-6.363-4.991-9.593c-0.158-0.32-0.439-0.64-0.665-0.897
			c-0.103-0.117-0.193-0.222-0.266-0.313C80.428,17.957,78.579,17.096,76.746,17.096z"/>
	</g>
	<g>
		<path d="M39.988,154.095L39.988,154.095c-1.879,0-3.632-0.712-5.211-2.116c-3.707-3.301-3.616-8.319,0.234-13.098
			c11.714-14.55,17.458-31.082,17.07-49.136c-0.346-16.208-5.696-31.189-15.901-44.528c-3.438-4.494-3.07-9.331,0.959-12.623
			c3.935-3.214,8.29-2.657,12.145,1.594c0.851,0.938,1.71,2.022,2.703,3.409c13.511,18.903,19.22,40.138,16.968,63.115
			c-1.758,17.976-8.735,34.798-20.177,48.648C45.715,152.523,42.776,154.095,39.988,154.095z M42.365,32.522
			c-1.311,0-2.643,0.545-3.96,1.621c-3.199,2.613-3.431,6.206-0.636,9.859c10.469,13.683,15.957,29.059,16.312,45.7
			c0.398,18.538-5.494,35.506-17.512,50.433c-3.161,3.923-3.333,7.792-0.462,10.35c3.148,2.801,6.949,1.908,11.181-2.456
			c11.134-13.482,17.956-29.933,19.676-47.511c2.203-22.481-3.383-43.259-16.604-61.756c-0.946-1.323-1.759-2.349-2.557-3.229
			C45.991,33.535,44.162,32.522,42.365,32.522z"/>
	</g>
	<g>
		<path d="M8.491,138.576C8.491,138.576,8.491,138.576,8.491,138.576c-2.362-0.001-4.506-1.002-6.201-2.896
			c-1.635-1.834-2.425-3.908-2.285-6c0.154-2.311,1.439-4.564,3.715-6.519c9.265-7.964,14.661-19.398,14.805-31.373
			c0.144-11.961-4.813-23.092-13.958-31.341c-3.971-3.583-4.355-8.54-0.955-12.332c1.631-1.823,3.832-2.828,6.196-2.828
			c2.269,0,4.593,0.938,6.543,2.64C28.269,58.33,35.359,73.482,35.804,89.5c0.45,16.191-5.903,31.93-17.431,43.179
			c-0.33,0.32-0.655,0.642-0.98,0.964c-0.687,0.679-1.373,1.357-2.085,2.008C13.216,137.564,10.858,138.576,8.491,138.576z
			 M9.809,47.288c-1.813,0-3.44,0.748-4.706,2.162c-2.646,2.951-2.33,6.685,0.805,9.513c9.577,8.64,14.768,20.307,14.617,32.851
			c-0.15,12.547-5.8,24.527-15.501,32.866c-1.86,1.597-2.905,3.372-3.023,5.134c-0.103,1.544,0.513,3.112,1.781,4.534
			c1.303,1.457,2.932,2.229,4.708,2.229c1.859,0,3.75-0.83,5.468-2.401c0.692-0.633,1.36-1.293,2.028-1.953
			c0.329-0.326,0.659-0.652,0.991-0.976c11.127-10.858,17.261-26.055,16.827-41.69c-0.43-15.461-7.27-30.085-18.768-40.121
			C13.451,48.05,11.595,47.288,9.809,47.288z"/>
	</g>
</g>
</svg>
