<?xml version="1.0" encoding="utf-8"?>
<!-- Generator: Adobe Illustrator 16.0.0, SVG Export Plug-In . SVG Version: 6.00 Build 0)  -->
<!DOCTYPE svg PUBLIC "-//W3C//DTD SVG 1.1//EN" "http://www.w3.org/Graphics/SVG/1.1/DTD/svg11.dtd">
<svg version="1.1" id="Capa_1" xmlns="http://www.w3.org/2000/svg" xmlns:xlink="http://www.w3.org/1999/xlink" x="0px" y="0px"
	 width="142.7px" height="186.29px" viewBox="0 0 142.7 186.29" enable-background="new 0 0 142.7 186.29" xml:space="preserve">
<g>
	<g>
		<path d="M29.674,184.702c-3.588-4.461-11.084-16.303-15.259-26.049h0.001C1.333,129.821-2.88,98.7,1.893,66.157
			c2.992-20.419,10.018-40.135,20.879-58.6c0.791-1.342,1.559-2.529,2.345-3.632c1.761-2.454,4.485-3.92,7.292-3.92
			c1.604,0,3.158,0.475,4.498,1.375c3.843,2.583,4.912,7.304,2.661,11.747c-1.245,2.457-2.57,4.928-3.851,7.318
			c-3.043,5.673-6.189,11.539-8.434,17.586c-15.887,42.833-13.038,84.814,8.473,124.778c0.129,0.24,0.227,0.484,0.295,0.674
			c2.223,3.502,5.762,10.293,7.234,14.27c0.546,1.473,0.42,3.092-0.355,4.558c-0.92,1.743-2.642,3.073-4.604,3.562
			c-1.064,0.265-2.384,0.416-3.617,0.416C32.995,186.288,30.729,186.011,29.674,184.702z M26.742,5.09
			c-0.751,1.052-1.485,2.192-2.247,3.483C13.764,26.813,6.825,46.285,3.87,66.448c-4.718,32.167-0.553,62.921,12.378,91.405
			l-0.128,0.069l0.133-0.057c4.106,9.584,11.463,21.209,14.979,25.581c0.313,0.388,1.41,0.839,3.479,0.839
			c1.078,0,2.221-0.129,3.135-0.356c1.397-0.347,2.67-1.325,3.318-2.554c0.357-0.678,0.689-1.734,0.248-2.93
			c-1.42-3.835-4.986-10.666-7.107-13.982L34.2,164.25c-0.059-0.17-0.122-0.338-0.206-0.494
			c-21.793-40.49-24.683-83.024-8.585-126.42c2.292-6.175,5.471-12.103,8.545-17.835c1.275-2.38,2.596-4.84,3.829-7.277
			c1.801-3.555,1.019-7.16-1.992-9.183c-1.009-0.678-2.179-1.036-3.383-1.036C30.246,2.005,28.126,3.159,26.742,5.09z"/>
	</g>
	<g>
		<path d="M56.527,160.502c-21.3-34.42-25.851-71.216-13.53-109.365c2.445-7.575,6.307-14.784,10.041-21.757
			c1.667-3.113,3.391-6.332,4.96-9.532c0.276-0.559,0.669-1.006,0.956-1.333c0.084-0.097,0.159-0.18,0.212-0.25l0.082-0.097
			c1.918-1.981,4.293-3.072,6.688-3.072c1.705,0,3.375,0.554,4.83,1.601c3.783,2.728,4.629,7.137,2.263,11.793
			c-1.345,2.647-2.798,5.305-4.203,7.876c-3.385,6.194-6.885,12.599-9.088,19.261c-11.614,35.066-6.813,68.752,14.272,100.127
			c1.414,2.103,2.319,4.736,2.42,7.045c0.103,2.385-0.847,5.334-5.957,5.838c-0.574,0.057-1.14,0.085-1.679,0.085l0,0
			C62.481,168.722,59.167,164.771,56.527,160.502z M60.721,19.522c-0.072,0.091-0.162,0.196-0.266,0.313
			c-0.227,0.257-0.507,0.577-0.665,0.897c-1.583,3.23-3.315,6.465-4.991,9.593c-3.691,6.895-7.51,14.024-9.9,21.427
			c-12.133,37.566-7.648,73.801,13.328,107.7c2.701,4.364,5.531,7.271,10.567,7.271c0.474,0,0.972-0.025,1.482-0.075
			c3.788-0.373,4.226-2.112,4.153-3.762c-0.084-1.956-0.862-4.204-2.082-6.015C50.902,124.958,46.02,90.682,57.84,54.999
			c2.258-6.834,5.803-13.32,9.23-19.592c1.398-2.557,2.843-5.202,4.174-7.823c1.91-3.756,1.309-7.133-1.648-9.265
			c-1.111-0.8-2.377-1.223-3.662-1.223C64.102,17.096,62.252,17.957,60.721,19.522z"/>
	</g>
	<path d="M73.727,100.715c1.759,17.975,8.735,34.797,20.178,48.647c3.063,3.161,6.001,4.733,8.789,4.733
		c1.879,0,3.632-0.713,5.211-2.116c3.706-3.301,3.615-8.319-0.234-13.099c-11.715-14.549-17.458-31.082-17.07-49.135
		c0.347-16.207,5.695-31.189,15.901-44.528c3.438-4.495,3.071-9.331-0.959-12.623c-3.937-3.214-8.291-2.657-12.146,1.594
		c-0.85,0.938-1.709,2.022-2.702,3.409C77.184,56.501,71.475,77.736,73.727,100.715z"/>
	<g>
		<path d="M127.373,135.651c-0.712-0.65-1.397-1.329-2.085-2.008c-0.324-0.322-0.65-0.645-0.98-0.964
			c-11.527-11.249-17.881-26.988-17.431-43.179c0.445-16.018,7.535-31.17,19.453-41.573c1.95-1.702,4.274-2.64,6.543-2.64
			c2.364,0,4.565,1.005,6.196,2.828c3.4,3.792,3.016,8.749-0.955,12.332c-9.145,8.249-14.102,19.38-13.958,31.341
			c0.144,11.975,5.54,23.41,14.805,31.373c2.276,1.955,3.562,4.209,3.716,6.52c0.14,2.092-0.65,4.166-2.285,6
			c-1.695,1.895-3.84,2.895-6.201,2.896l0,0C131.823,138.577,129.465,137.564,127.373,135.651z M127.645,49.436
			c-11.498,10.036-18.338,24.66-18.769,40.121c-0.434,15.635,5.7,30.832,16.827,41.689c0.332,0.324,0.662,0.65,0.991,0.977
			c0.668,0.66,1.336,1.32,2.028,1.953c1.718,1.57,3.608,2.4,5.468,2.4c1.776,0,3.405-0.771,4.708-2.229
			c1.268-1.422,1.884-2.99,1.781-4.534c-0.119-1.763-1.164-3.537-3.023-5.134c-9.701-8.34-15.352-20.319-15.501-32.866
			c-0.151-12.544,5.04-24.211,14.616-32.851c3.136-2.828,3.451-6.562,0.806-9.513c-1.267-1.414-2.894-2.162-4.706-2.162
			C131.085,47.288,129.229,48.05,127.645,49.436z"/>
	</g>
</g>
</svg>
