<?xml version="1.0" encoding="utf-8"?>
<!-- Generator: Adobe Illustrator 16.0.0, SVG Export Plug-In . SVG Version: 6.00 Build 0)  -->
<!DOCTYPE svg PUBLIC "-//W3C//DTD SVG 1.1//EN" "http://www.w3.org/Graphics/SVG/1.1/DTD/svg11.dtd">
<svg version="1.1" id="Capa_1" xmlns="http://www.w3.org/2000/svg" xmlns:xlink="http://www.w3.org/1999/xlink" x="0px" y="0px"
	 width="142.7px" height="186.29px" viewBox="0 0 142.7 186.29" enable-background="new 0 0 142.7 186.29" xml:space="preserve">
<g>
	<path d="M14.417,158.655L14.417,158.655c4.173,9.746,11.67,21.588,15.257,26.049c1.057,1.31,3.321,1.584,5.036,1.584
		c1.233,0,2.552-0.15,3.617-0.416c1.962-0.488,3.683-1.818,4.604-3.561c0.774-1.466,0.9-3.085,0.354-4.559
		c-1.472-3.976-5.011-10.767-7.235-14.269c-0.068-0.19-0.166-0.435-0.295-0.674c-21.51-39.964-24.359-81.945-8.472-124.778
		c2.245-6.047,5.39-11.913,8.433-17.586c1.282-2.389,2.607-4.86,3.852-7.318c2.251-4.444,1.182-9.164-2.661-11.747
		c-1.341-0.899-2.894-1.375-4.498-1.375c-2.806,0-5.531,1.465-7.292,3.92c-0.786,1.103-1.553,2.29-2.344,3.632
		C11.911,26.023,4.884,45.739,1.892,66.158C-2.88,98.702,1.333,129.822,14.417,158.655z"/>
	<g>
		<path d="M56.528,160.502c-21.3-34.42-25.851-71.216-13.53-109.365c2.445-7.575,6.307-14.784,10.041-21.757
			c1.667-3.113,3.391-6.332,4.96-9.532c0.276-0.559,0.669-1.006,0.956-1.333c0.084-0.097,0.159-0.18,0.212-0.25l0.082-0.097
			c1.918-1.981,4.293-3.072,6.688-3.072c1.705,0,3.375,0.554,4.83,1.601c3.784,2.728,4.63,7.137,2.263,11.793
			c-1.345,2.647-2.798,5.305-4.203,7.876c-3.385,6.194-6.885,12.599-9.088,19.261c-11.614,35.066-6.813,68.752,14.271,100.127
			c1.416,2.103,2.32,4.736,2.42,7.045c0.104,2.385-0.846,5.334-5.956,5.838c-0.574,0.057-1.14,0.085-1.679,0.085l0,0
			C62.482,168.722,59.168,164.771,56.528,160.502z M60.722,19.522c-0.072,0.091-0.162,0.196-0.266,0.313
			c-0.227,0.257-0.507,0.577-0.665,0.897c-1.583,3.23-3.315,6.465-4.991,9.593c-3.691,6.895-7.51,14.024-9.9,21.427
			c-12.133,37.566-7.648,73.801,13.328,107.7c2.701,4.364,5.531,7.271,10.567,7.271c0.474,0,0.972-0.025,1.482-0.075
			c3.787-0.373,4.226-2.112,4.154-3.762c-0.086-1.956-0.863-4.204-2.082-6.015C50.903,124.958,46.021,90.682,57.841,54.999
			c2.258-6.834,5.803-13.32,9.23-19.592c1.398-2.557,2.843-5.202,4.174-7.823c1.91-3.756,1.308-7.133-1.648-9.265
			c-1.111-0.8-2.377-1.223-3.662-1.223C64.103,17.096,62.253,17.957,60.722,19.522z"/>
	</g>
	<g>
		<path d="M93.904,149.36c-11.442-13.85-18.419-30.672-20.177-48.648C71.475,77.735,77.184,56.5,90.695,37.597
			c0.993-1.387,1.852-2.471,2.702-3.409c3.855-4.251,8.211-4.808,12.146-1.594c4.029,3.292,4.397,8.129,0.959,12.623
			C96.296,58.556,90.947,73.537,90.6,89.745c-0.388,18.054,5.356,34.585,17.07,49.136c3.85,4.779,3.941,9.797,0.234,13.098
			c-1.579,1.404-3.332,2.116-5.211,2.116l0,0C99.906,154.095,96.967,152.523,93.904,149.36z M94.878,35.533
			c-0.798,0.88-1.61,1.906-2.557,3.229C79.1,57.259,73.514,78.037,75.717,100.518c1.721,17.578,8.543,34.029,19.676,47.511
			c4.232,4.364,8.033,5.257,11.182,2.456c2.871-2.559,2.699-6.427-0.462-10.35c-12.019-14.928-17.91-31.895-17.513-50.433
			c0.355-16.641,5.844-32.017,16.313-45.7c2.795-3.653,2.563-7.246-0.636-9.859c-1.317-1.076-2.649-1.621-3.96-1.621
			C98.52,32.522,96.69,33.535,94.878,35.533z"/>
	</g>
	<g>
		<path d="M127.374,135.651c-0.712-0.65-1.398-1.329-2.085-2.008c-0.325-0.322-0.649-0.645-0.979-0.964
			c-11.528-11.249-17.881-26.988-17.432-43.179c0.445-16.018,7.535-31.17,19.453-41.573c1.95-1.702,4.273-2.64,6.543-2.64
			c2.364,0,4.564,1.005,6.196,2.828c3.399,3.792,3.016,8.749-0.955,12.332c-9.146,8.249-14.103,19.38-13.958,31.341
			c0.145,11.975,5.54,23.41,14.805,31.373c2.276,1.955,3.561,4.209,3.715,6.52c0.141,2.092-0.649,4.166-2.285,6
			c-1.694,1.895-3.838,2.895-6.201,2.896l0,0C131.824,138.577,129.465,137.564,127.374,135.651z M127.645,49.436
			c-11.498,10.036-18.338,24.66-18.768,40.121c-0.434,15.635,5.7,30.832,16.827,41.689c0.332,0.324,0.662,0.65,0.991,0.977
			c0.668,0.66,1.336,1.32,2.027,1.953c1.719,1.57,3.609,2.4,5.469,2.4c1.775,0,3.404-0.771,4.707-2.229
			c1.269-1.422,1.885-2.99,1.781-4.534c-0.117-1.763-1.162-3.537-3.022-5.134c-9.701-8.34-15.351-20.319-15.501-32.866
			c-0.15-12.544,5.04-24.211,14.617-32.851c3.135-2.828,3.451-6.562,0.805-9.513c-1.266-1.414-2.893-2.162-4.706-2.162
			C131.086,47.288,129.231,48.05,127.645,49.436z"/>
	</g>
</g>
</svg>
