<?xml version="1.0" encoding="utf-8"?>
<!-- Generator: Adobe Illustrator 16.0.0, SVG Export Plug-In . SVG Version: 6.00 Build 0)  -->
<!DOCTYPE svg PUBLIC "-//W3C//DTD SVG 1.1//EN" "http://www.w3.org/Graphics/SVG/1.1/DTD/svg11.dtd">
<svg version="1.1" id="Capa_1" xmlns="http://www.w3.org/2000/svg" xmlns:xlink="http://www.w3.org/1999/xlink" x="0px" y="0px"
	 width="142.7px" height="186.29px" viewBox="0 0 142.7 186.29" enable-background="new 0 0 142.7 186.29" xml:space="preserve">
<g>
	<g>
		<path d="M107.978,186.279c-1.232,0-2.55-0.151-3.615-0.415c-1.962-0.487-3.683-1.817-4.604-3.56
			c-0.775-1.466-0.902-3.085-0.356-4.559c1.475-3.981,5.015-10.771,7.236-14.27c0.094-0.26,0.188-0.477,0.294-0.672
			c21.51-39.963,24.36-81.944,8.473-124.778c-2.243-6.044-5.388-11.907-8.429-17.578c-1.282-2.392-2.609-4.865-3.854-7.326
			c-2.252-4.442-1.184-9.163,2.66-11.746C107.122,0.477,108.678,0,110.28,0c2.807,0,5.532,1.466,7.292,3.921
			c0.783,1.097,1.55,2.284,2.345,3.632c10.863,18.467,17.888,38.183,20.88,58.601c4.773,32.545,0.56,63.664-12.524,92.493l0,0
			c-4.171,9.742-11.669,21.586-15.258,26.048C111.96,186.005,109.693,186.279,107.978,186.279z M110.28,2
			c-1.204,0-2.374,0.358-3.383,1.036c-3.012,2.023-3.793,5.628-1.991,9.183c1.234,2.439,2.556,4.902,3.833,7.284
			c3.073,5.73,6.25,11.654,8.541,17.828c16.097,43.396,13.208,85.931-8.586,126.421c-0.084,0.156-0.147,0.323-0.206,0.492
			l-0.103,0.213c-2.119,3.313-5.686,10.144-7.108,13.984c-0.442,1.194-0.108,2.252,0.249,2.929c0.649,1.228,1.921,2.206,3.317,2.553
			c0.914,0.227,2.057,0.356,3.134,0.356c2.069,0,3.167-0.452,3.479-0.839c3.519-4.374,10.877-16.001,14.979-25.581l0.136,0.058
			l-0.131-0.071c12.932-28.481,17.097-59.233,12.379-91.402c-2.955-20.161-9.894-39.633-20.625-57.876
			c-0.764-1.296-1.499-2.436-2.247-3.482C114.562,3.154,112.443,2,110.28,2z"/>
	</g>
	<g>
		<path d="M73.894,168.718L73.894,168.718c-0.539,0-1.104-0.028-1.678-0.085c-5.11-0.504-6.06-3.453-5.956-5.838
			c0.1-2.308,1.004-4.941,2.421-7.045c21.083-31.373,25.885-65.061,14.27-100.127c-2.202-6.664-5.703-13.069-9.089-19.265
			c-1.404-2.569-2.856-5.227-4.201-7.873c-2.367-4.657-1.521-9.066,2.264-11.794c1.453-1.047,3.123-1.6,4.829-1.6
			c2.395,0,4.771,1.091,6.689,3.072l0.082,0.097c0.053,0.07,0.127,0.153,0.212,0.249c0.287,0.327,0.68,0.774,0.955,1.334
			c1.569,3.198,3.292,6.416,4.959,9.528c3.735,6.974,7.597,14.185,10.043,21.76c12.321,38.149,7.769,74.945-13.531,109.366
			C83.521,164.767,80.207,168.718,73.894,168.718z M76.753,17.092c-1.283,0-2.549,0.423-3.659,1.223
			c-2.958,2.132-3.56,5.509-1.65,9.265c1.331,2.62,2.775,5.264,4.173,7.82c3.429,6.273,6.974,12.76,9.232,19.596
			c11.819,35.683,6.938,69.958-14.509,101.871c-1.22,1.812-1.998,4.06-2.082,6.015c-0.071,1.65,0.366,3.389,4.153,3.762
			c0.51,0.05,1.009,0.075,1.482,0.075c5.037,0,7.868-2.907,10.567-7.272c20.978-33.899,25.462-70.134,13.33-107.698
			c-2.392-7.405-6.21-14.535-9.903-21.431c-1.675-3.128-3.407-6.361-4.99-9.59c-0.158-0.321-0.439-0.641-0.665-0.897
			c-0.102-0.116-0.192-0.222-0.265-0.313C80.437,17.952,78.586,17.092,76.753,17.092z"/>
	</g>
	<g>
		<path d="M39.998,154.09C39.997,154.09,39.997,154.09,39.998,154.09c-1.881,0-3.634-0.712-5.213-2.116
			c-3.707-3.3-3.617-8.318,0.234-13.098c11.715-14.55,17.458-31.082,17.069-49.136c-0.347-16.207-5.696-31.188-15.901-44.528
			c-3.438-4.494-3.07-9.331,0.959-12.623c3.935-3.215,8.289-2.658,12.146,1.595c0.849,0.936,1.707,2.019,2.702,3.409
			c13.511,18.904,19.22,40.139,16.969,63.115c-1.759,17.976-8.736,34.798-20.178,48.648C45.724,152.518,42.785,154.09,39.998,154.09
			z M42.372,32.517c-1.311,0-2.644,0.546-3.96,1.621c-3.198,2.612-3.431,6.206-0.637,9.859c10.469,13.685,15.957,29.061,16.313,45.7
			c0.398,18.538-5.493,35.506-17.512,50.433c-3.162,3.924-3.335,7.793-0.462,10.35c1.201,1.068,2.508,1.61,3.882,1.61
			c0,0,0,0,0.001,0c2.226,0,4.681-1.368,7.299-4.066c11.134-13.483,17.956-29.933,19.676-47.511
			c2.202-22.48-3.385-43.258-16.605-61.757c-0.948-1.325-1.762-2.352-2.557-3.229C45.999,33.529,44.169,32.517,42.372,32.517z"/>
	</g>
	<path d="M35.812,89.497c-0.444-16.019-7.534-31.172-19.451-41.575c-1.95-1.702-4.274-2.64-6.544-2.64
		c-2.363,0-4.563,1.005-6.194,2.827c-3.4,3.793-3.018,8.749,0.954,12.332c9.145,8.251,14.101,19.382,13.957,31.343
		c-0.144,11.973-5.54,23.407-14.805,31.371c-2.276,1.954-3.561,4.208-3.715,6.519c-0.14,2.092,0.65,4.166,2.285,6
		c1.694,1.894,3.838,2.896,6.2,2.896c2.367,0,4.725-1.012,6.817-2.924c0.711-0.65,1.397-1.329,2.085-2.008
		c0.324-0.322,0.649-0.644,0.979-0.964C29.908,121.425,36.262,105.688,35.812,89.497z"/>
</g>
</svg>
