<?xml version="1.0" encoding="utf-8"?>
<!-- Generator: Adobe Illustrator 16.0.0, SVG Export Plug-In . SVG Version: 6.00 Build 0)  -->
<!DOCTYPE svg PUBLIC "-//W3C//DTD SVG 1.1//EN" "http://www.w3.org/Graphics/SVG/1.1/DTD/svg11.dtd">
<svg version="1.1" id="Capa_1" xmlns="http://www.w3.org/2000/svg" xmlns:xlink="http://www.w3.org/1999/xlink" x="0px" y="0px"
	 width="122.09px" height="97.86px" viewBox="0 0 122.09 97.86" enable-background="new 0 0 122.09 97.86" xml:space="preserve">
<g>
	<path fill="none" d="M55.18,52.878c-0.593,0.178-1.148,0.344-1.688,0.504c0.399,0.402,0.801,0.803,1.201,1.205
		C54.932,54.087,54.998,53.485,55.18,52.878z"/>
	<path fill="none" d="M48.913,33.89c-0.309,1.238,0.428,1.755,1.171,2.351c1.275-0.839,1.456-1.101,1.252-2.037
		c-0.354-1.632-0.924-3.149-2.791-4.327c0.031,0.891,0.019,1.53,0.085,2.158C48.695,32.662,49.05,33.333,48.913,33.89z"/>
	<path fill="none" d="M50.886,57.905c0.274-0.264,0.543-0.535,0.823-0.795c0.223-0.203,0.435-0.443,0.65-0.676
		c-0.409-0.404-0.815-0.813-1.227-1.213c-0.184,0.801-0.374,1.625-0.566,2.467C50.673,57.761,50.779,57.833,50.886,57.905z"/>
	<path fill="none" d="M47.854,49.776c-0.023-0.186-0.028-0.373-0.038-0.559c-0.188,0.014-0.374,0.026-0.593,0.053
		C47.436,49.441,47.644,49.606,47.854,49.776z"/>
	<path fill="none" d="M36.597,45.417c-1.984,2.931,1.128,8.506,3.971,9.178c-2.225-3.574-4.706-7.089-0.577-10.992
		C38.489,43.498,37.418,44.203,36.597,45.417z"/>
	<path fill="none" d="M65.242,81.075c0.932,1.053,2.676,1.322,3.785,0.354c1.459-1.275,2.756-2.738,4.025-4.023
		c-1.328-1.375-2.637-2.727-4.012-4.152c-1.271,1.295-2.58,2.547-3.795,3.883C64.152,78.343,64.199,79.899,65.242,81.075z"/>
	<path fill="none" d="M57.798,72.257c-1.058,1.176-0.781,2.904,0.372,3.91c1.207,1.049,2.807,0.986,3.992-0.168
		c0.58-0.566,1.156-1.135,1.729-1.709c1.033-1.043,2.064-2.09,3.078-3.115c-1.389-1.391-2.701-2.711-4.053-4.066
		C61.205,68.813,59.416,70.458,57.798,72.257z"/>
	<path fill="none" d="M34.707,38.616c-0.235-0.806-0.433-1.514-0.651-2.213c-0.087-0.274-0.166-0.584-0.346-0.79
		c-1.793-2.058-1.339-5.004,1.017-6.299c0.824-0.454,1.618-0.582,2.209,0.44c0.168,0.29,0.532,0.501,0.852,0.657
		c1.363,0.67,1.899,1.63,1.61,2.971c-0.309,1.434-1.226,2.21-2.665,2.266c-0.289,0.013-0.58,0.03-0.937,0.048
		c-0.003,2.108,2.658,1.733,4.575,0.276c-1.203-0.161-1.203-0.161-1.345-0.918c1.461,0.4,5.504-1.745,5.536-2.646
		c-0.781-0.219-1.511-0.364-2.169-0.665c-0.123-0.056,0.034-0.728,0.054-0.992c0.436,0.401,0.747,0.924,1.033,0.909
		c0.711-0.035,1.229-0.557,0.986-1.297c-0.122-0.371-0.717-0.877-1.044-0.84c-1.892,0.211-3.623-0.295-5.389-0.85
		c-3.083-0.972-6.165,0.982-6.755,4.182c-0.103,0.558-0.289,1.098-0.47,1.775c-0.386-0.258-0.58-0.358-0.737-0.5
		c-1.088-0.981-1.917-1.029-2.69,0.177c-1.414,2.202-2.652,4.522-4.043,6.931c1.763-0.369,3.261-1.013,4.505-2.13
		c1.234-1.103,2.392-2.293,3.779-3.636c0.208,1.756,0.38,3.204,0.566,4.775C33.17,39.611,34.001,39.073,34.707,38.616z"/>
	<path fill="none" d="M32.925,26.845c0.029,0.188,0.419,0.318,0.896,0.648c-0.146-0.851-0.224-1.314-0.304-1.78
		c-0.158-0.032-0.315-0.062-0.476-0.093C32.992,26.032,32.864,26.454,32.925,26.845z"/>
	<path fill="none" d="M31.743,30.166c0.828-1.143,1.083-3.078,0.265-4.039c-1.373-1.609-2.919-3.069-4.433-4.635
		c-1.12,3.162,0.931,8.961,3.393,9.761C31.221,30.897,31.48,30.532,31.743,30.166z"/>
	<path fill="none" d="M36.183,30.048c-1.224-0.31-2.487,0.707-2.791,2.126c-0.291,1.356,0.172,2.437,1.113,2.595
		C33.563,32.692,33.983,31.439,36.183,30.048z"/>
	<path fill="none" d="M32.521,23.958c-0.144,0.003-0.288,0.005-0.429,0.006c0.009,0.469,0.02,0.941,0.034,1.59
		C33.471,24.9,33.053,24.43,32.521,23.958z"/>
	<path fill="none" d="M38.063,34.427c0.729-0.686,0.865-2.13,0.259-2.762c-0.77-0.802-2.101-0.874-2.846-0.154
		c-0.793,0.768-0.86,1.987-0.149,2.728C36.091,35.033,37.331,35.12,38.063,34.427z"/>
	<path fill="none" d="M41.332,43.253c0.17-0.7,0.244-1.01,0.404-1.672c-0.596,0.256-0.952,0.412-1.31,0.569
		C40.668,42.443,40.908,42.736,41.332,43.253z"/>
	<path fill="none" d="M44.951,39.445c1.289-1.068,2.448-2.291,3.744-3.549c-0.746-0.344-3.978,1.709-5.572,3.478
		C43.901,39.421,44.644,39.699,44.951,39.445z"/>
	<path fill="none" d="M25.32,36.577c0.152-0.616,1.158-1.302-0.34-1.753C24.006,36.263,24.006,36.263,25.32,36.577z"/>
	<path fill="none" d="M42.84,44.191c-2.732-0.445-4.131,0.775-4.239,3.567c-0.036,0.968,0.189,2.032,0.597,2.913
		c0.575,1.244,1.393,2.383,2.172,3.521c0.513,0.746,1.143,1.416,1.878,2.314c-0.646,0.082-1.033,0.191-1.416,0.172
		c-4.497-0.229-8.36-4.41-8.322-8.892c0.037-4.233,3.861-7.883,8.247-6.561c0.862,0.257,1.716,0.535,2.585,0.758
		c0.347,0.088,0.776,0.174,1.079,0.047c1.86-0.783,3.697-1.625,5.534-2.464c0.18-0.083,0.303-0.28,0.452-0.426
		c-0.03-0.083-0.061-0.165-0.09-0.247c-0.363,0.059-0.737,0.08-1.088,0.181c-1.149,0.332-2.311,0.644-3.433,1.058
		c-1.355,0.502-2.621,0.479-3.819-0.369c-2.431-1.72-5.11-0.852-7.598-0.442c-1.733,0.286-3.034,1.79-3.906,3.476
		c-2.742,5.301,0.256,13.283,5.259,15.31c1.039,0.422,2.081,0.846,3.09,1.332c0.594,0.289,1.306,0.59,1.63,1.098
		c0.279,0.434,0.085,1.17,0.11,2.168c0.718-0.822,1.68-1.424,1.759-2.123c0.202-1.744,1.28-2.123,2.662-2.334
		c0.219-0.035,0.432-0.125,0.64-0.205c2.444-0.971,2.994-3.475,1.082-5.297c-0.967-0.922-2.079-1.711-3.192-2.457
		c-0.923-0.617-1.943-1.085-2.947-1.635c0.094-0.341,0.196-0.622,0.246-0.909c0.182-1.08,0.714-1.446,1.862-1.268
		c1.435,0.222,2.879,0.385,4.324,0.54c0.136-0.599,0.342-1.177,0.609-1.727C46.681,44.889,44.765,44.504,42.84,44.191z"/>
	<path fill="none" d="M54.161,38.689c0.19-0.361,0.325-0.81,0.621-1.045c1.195-0.947,0.76-1.971,0.167-3.383
		c-1.192,1.421-2.243,2.669-3.306,3.932c0.286,0.395,0.399,0.543,0.506,0.693C52.973,40.06,53.461,40.009,54.161,38.689z"/>
	<path fill="none" d="M24.726,37.408c-0.315-0.13-0.64-0.264-0.983-0.402c-0.29,0.435-0.527,0.797-0.814,1.23
		C24.122,38.89,24.382,38.759,24.726,37.408z"/>
	<path fill="none" d="M21.828,40.248c1.054,0.532,1.393,0.066,1.544-0.791C22.335,38.667,22.098,39.369,21.828,40.248z"/>
	<path fill="none" d="M2.817,31.261c0.223,0.27,0.424,0.558,0.668,0.803c7.023,7.045,14.061,14.074,21.072,21.13
		c2.652,2.668,5.226,5.412,7.873,8.084c1.353,1.365,2.822,2.615,4.188,3.969c3.725,3.699,7.435,7.416,11.123,11.154
		c0.551,0.559,0.877,0.539,1.396-0.031c0.961-1.049,1.996-2.031,3.018-3.023c0.206-0.201,0.492-0.316,0.742-0.473
		c0.115-0.201,0.19-0.441,0.348-0.602c1.35-1.375,2.715-2.736,4.072-4.104c1.115-1.121,2.229-2.244,3.338-3.363
		c-0.123-0.154-0.169-0.225-0.228-0.283c-2.587-2.594-5.158-5.205-7.76-7.783c-0.282,0.285-0.556,0.58-0.823,0.877
		c-0.616,0.682-1.236,1.041-1.8,0.143c-1.4,0.955-2.735,1.865-4.294,2.936c-0.673,2.887-2.74,4.061-5.765,2.516
		c0.27-0.383,0.535-0.76,0.808-1.129c0.729-0.994,0.646-1.412-0.494-1.949c-1.115-0.527-2.245-1.033-3.397-1.473
		c-5.86-2.236-9.081-11.427-5.233-17.078c0.164-0.239,0.139-0.65,0.105-0.975c-0.129-1.325-0.294-2.646-0.438-3.914
		c-1.745,1.371-3.301,2.94-5.158,3.953c-1.766,0.96-3.847,1.338-5.792,1.973c-0.078-0.086-0.158-0.173-0.238-0.259
		c0.517-1.035,0.974-2.106,1.561-3.099c1.133-1.909,2.232-3.852,3.55-5.631c1.016-1.375,2.399-2.418,4.438-2.343
		c-2.987-3.757-3.408-7.856-2.227-12.342c0.934,0.794,1.827,1.56,2.728,2.313c0.511,0.43,1.043,0.832,1.552,1.266
		c1.725,1.472,2.571,3.339,2.42,5.821c1.554-0.758,2.903-0.472,4.23-0.01c1.605,0.56,3.209,1.001,4.944,0.733
		c0.954-0.149,1.445,0.408,1.607,1.322c0.205,1.146,0.471,2.283,0.65,3.433c0.14,0.895,0.029,1.646-1.015,2.066
		c-1.677,0.678-3.298,1.493-5.072,2.311c0.4,0.07,0.696,0.045,0.9,0.171c1.66,1.007,2.898,0.156,4.164-0.844
		c1.144-0.901,2.417-1.642,3.509-2.599c0.343-0.299,0.379-1.064,0.372-1.615c-0.007-0.585-0.245-1.165-0.355-1.752
		c-0.219-1.15,0.275-2.054,1.105-2.752c1.112-0.939,2.468-0.465,2.896,0.943c0.067,0.222,0.225,0.412,0.367,0.669
		c-0.513,0.371-0.992,0.718-1.512,1.095c0.258,0.831,0.521,1.645,0.766,2.461c0.248,0.836,0.05,1.506-0.63,2.108
		c-1.061,0.942-2.052,1.964-3.011,3.036c1.668-0.379,3.374-0.491,4.235-2.453c0.625-1.418,1.954-2.348,3.435-2.903
		c1.097-0.407,2.001,0.274,2.101,1.441c0.053,0.601,0.223,1.193,0.427,2.248c-0.377-0.16-0.61-0.267-0.85-0.364
		c-1.185-0.492-2.053,0.055-2.464,1.063c-0.583,1.436-1.792,1.969-3.008,2.604c-1.391,0.726-2.733,1.541-4.032,2.28
		c0.131,0.852,0.465,1.377,0.967,1.717c0.922-1.56,2.39-2.793,4.336-3.262c0.77-0.187,1.635,0.031,2.456,0.061
		c0.257-0.032,0.526-0.135,0.765-0.083c1.431,0.308,2.633,1.048,3.664,2.069c0.125,0.124,0.248,0.25,0.373,0.373
		c0.13,0.085,0.237,0.192,0.32,0.32c1.271,1.264,2.541,2.531,3.804,3.805c2.119,2.136,4.23,4.281,6.379,6.453
		c1.938-1.941,3.781-3.805,5.643-5.65c0.48-0.477,0.176-0.76-0.166-1.101c-3.949-3.94-7.898-7.878-11.83-11.835
		c-0.553-0.555-1.006-1.205-1.506-1.81c-0.268-0.179-0.574-0.317-0.799-0.54c-3.109-3.093-6.206-6.197-9.308-9.297
		c-6.956-6.952-13.92-13.896-20.859-20.866c-0.565-0.569-0.882-0.507-1.409,0.021c-3.276,3.275-6.593,6.512-9.876,9.78
		c-4.424,4.405-8.828,8.831-13.254,13.235c-0.256,0.253-0.62,0.396-0.933,0.592c-0.219,0.332-0.392,0.708-0.663,0.989
		C4.979,29.112,3.893,30.181,2.817,31.261z"/>
	<path fill="none" d="M78.686,45.789c1.59,1.582,1.59,3.6,0.002,5.169c-1.709,1.691-3.4,3.396-5.096,5.098
		c-0.148,0.15-0.268,0.328-0.41,0.506c0.334,0.354,0.586,0.695,0.91,0.951c1.018,0.811,1.996,1.697,3.109,2.344
		c0.988,0.574,1.707,0.342,2.455-0.527c0.908-1.057,1.854-2.105,2.596-3.275c0.629-0.99,1.225-2.107,1.43-3.242
		c0.408-2.246,0.426-4.56,0.824-6.808c0.254-1.426-0.598-3.146-1.91-3.639c-1.855-0.697-3.744-1.309-5.629-1.93
		c-1.607-0.529-3.229-1.021-4.842-1.531c-0.033,0.06-0.064,0.117-0.096,0.176c0.066,0.084,0.129,0.173,0.203,0.25
		C74.383,41.484,76.529,43.642,78.686,45.789z"/>
	<path d="M64.641,35.906c3.932,3.957,7.881,7.895,11.83,11.835c0.342,0.341,0.646,0.624,0.166,1.101
		c-1.861,1.845-3.705,3.708-5.643,5.65c-2.148-2.172-4.26-4.316-6.379-6.453c-1.264-1.273-2.533-2.541-3.804-3.805
		c0.05,0.078,0.099,0.157,0.127,0.251c0.177,0.573,0.576,1.517-0.197,2.171c-0.071,0.062-0.043,0.26-0.026,0.39
		c0.045,0.356,0.109,0.706,0.167,1.071c-0.185,0.009-0.266,0.039-0.306,0.011c-0.006-0.004-0.01-0.006-0.015-0.01
		c3.503,3.54,7.013,7.073,10.558,10.571c1.246,1.229,2.523,2.486,3.99,3.414c2.604,1.643,4.902,1.213,6.967-1.053
		c0.824-0.908,1.598-1.875,2.305-2.875c1.096-1.555,2.107-3.164,2.309-5.133c0.227-2.223,0.494-4.441,0.684-6.666
		c0.305-3.577-1.064-5.773-4.445-7.035c-1.797-0.668-3.648-1.198-5.48-1.773c-3.082-0.967-6.176-1.9-9.248-2.898
		c-0.555-0.178-1.057-0.557-1.533-0.912c-0.611-0.457-1.17-0.981-1.75-1.477c-0.594,0.605-1.188,1.211-1.781,1.815
		C63.635,34.701,64.088,35.351,64.641,35.906z M72.125,38.904c1.613,0.51,3.234,1.002,4.842,1.531
		c1.885,0.621,3.773,1.232,5.629,1.93c1.313,0.492,2.164,2.213,1.91,3.639c-0.398,2.248-0.416,4.562-0.824,6.808
		c-0.205,1.135-0.801,2.252-1.43,3.242c-0.742,1.17-1.688,2.219-2.596,3.275c-0.748,0.869-1.467,1.102-2.455,0.527
		c-1.113-0.646-2.092-1.533-3.109-2.344c-0.324-0.256-0.576-0.598-0.91-0.951c0.143-0.178,0.262-0.355,0.41-0.506
		c1.695-1.701,3.387-3.406,5.096-5.098c1.588-1.57,1.588-3.587-0.002-5.169c-2.156-2.146-4.303-4.305-6.453-6.459
		c-0.074-0.077-0.137-0.166-0.203-0.25C72.061,39.021,72.092,38.963,72.125,38.904z"/>
	<path d="M56.454,41.471c-0.238-0.052-0.508,0.051-0.765,0.083c-1.172,1.191-2.344,2.386-3.515,3.578
		c0.054-0.001,0.127,0.021,0.158-0.006c1.513-1.273,3.382-1.057,4.824-0.181c0.403-0.305,0.801-0.621,1.213-0.911
		c0.628-0.444,1.555-0.489,2.121-0.121c-0.125-0.123-0.248-0.249-0.373-0.373C59.086,42.519,57.884,41.779,56.454,41.471z"/>
	<path d="M58.208,45.761c-0.027-0.248-0.075-0.498-0.128-0.749c-0.163,0.076-0.316,0.146-0.477,0.222
		c0.215,0.161,0.417,0.337,0.603,0.525C58.207,45.76,58.207,45.761,58.208,45.761z"/>
	<path d="M53.461,55.593c0.683-0.207,1.022-0.568,1.231-1.006c-0.4-0.402-0.802-0.803-1.201-1.205
		c-0.717,0.213-1.402,0.416-2.077,0.617c-0.089,0.387-0.186,0.807-0.281,1.223c0.411,0.4,0.817,0.809,1.227,1.213
		C52.7,56.065,53.047,55.72,53.461,55.593z"/>
	<path d="M51.192,52.663c0.237,0.807,0.814,0.84,1.509,0.619c0.176-0.055,0.353-0.109,0.528-0.164
		c-0.364-0.367-0.731-0.732-1.096-1.1c-0.613-0.619-1.072-1.51-1.309-2.355c-0.041-0.148-0.061-0.291-0.084-0.435
		c-0.179-0.02-0.356-0.043-0.53-0.08C50.552,50.378,50.856,51.524,51.192,52.663z"/>
	<path d="M53.01,56.396c-0.118,0.109-0.229,0.229-0.343,0.344c2.602,2.578,5.173,5.189,7.76,7.783
		c0.059,0.059,0.104,0.129,0.228,0.283c-1.109,1.119-2.223,2.242-3.338,3.363c-1.357,1.367-2.723,2.729-4.072,4.104
		c-0.157,0.16-0.232,0.4-0.348,0.602c1.389,1.395,2.776,2.785,4.166,4.178c0.881,0.883,1.764,1.764,2.648,2.645
		c0.592,0.037,1.186,0.072,1.79,0.111c0.026,0.078,0.058,0.154,0.075,0.234c0.513,2.354,1.898,3.984,4.207,4.656
		c2.363,0.688,4.396-0.031,6.059-1.832c0.805-0.871,1.613-1.74,2.494-2.691c0.35,0.869,0.594,1.475,0.836,2.078
		c0.725-0.727,1.449-1.453,2.174-2.18c-0.068-0.717-0.072-1.445-0.229-2.143c-0.121-0.537-0.309-1.156-0.678-1.529
		c-6.701-6.738-13.422-13.453-20.126-20.188c-0.32-0.063-0.569-0.109-0.77-0.225C54.563,55.409,53.756,55.708,53.01,56.396z
		 M73.053,77.405c-1.27,1.285-2.566,2.748-4.025,4.023c-1.109,0.969-2.854,0.699-3.785-0.354c-1.043-1.176-1.09-2.732,0.004-3.939
		c1.215-1.336,2.523-2.588,3.795-3.883C70.416,74.679,71.725,76.03,73.053,77.405z M66.969,71.175
		c-1.014,1.025-2.045,2.072-3.078,3.115c-0.572,0.574-1.148,1.143-1.729,1.709c-1.185,1.154-2.785,1.217-3.992,0.168
		c-1.153-1.006-1.43-2.734-0.372-3.91c1.617-1.799,3.406-3.443,5.118-5.148C64.268,68.464,65.58,69.784,66.969,71.175z"/>
	<path d="M50.524,51.915c-0.421-2.297-0.874-2.827-2.708-2.698c0.01,0.187,0.015,0.373,0.038,0.559
		C48.74,50.485,49.613,51.185,50.524,51.915z"/>
	<path d="M55.689,41.554c-0.821-0.029-1.687-0.247-2.456-0.061c-1.946,0.469-3.414,1.702-4.336,3.262
		c0.367,0.249,0.821,0.402,1.363,0.496c0.511,0.088,1.006,0.263,1.5,0.446c0.132-0.191,0.27-0.38,0.414-0.565
		C53.345,43.94,54.517,42.746,55.689,41.554z"/>
	<path d="M47.998,47.016c0.97,0.104,1.939,0.207,2.908,0.319c0.165-0.493,0.414-0.964,0.711-1.419
		c-1.008-0.21-2.011-0.419-3.01-0.627C48.339,45.839,48.133,46.417,47.998,47.016z"/>
	<path d="M109.732,81.669c3.191,3.287,6.457,6.504,9.707,9.734c0.26,0.258,0.635,0.475,0.99,0.547
		c0.67,0.135,1.215-0.17,1.502-0.795c0.322-0.691,0.111-1.301-0.412-1.824c-3.08-3.082-6.127-6.197-9.252-9.236
		c-1.867-1.818-2.512-4.068-2.742-6.551c-0.498-5.414-1.014-10.828-1.564-16.236c-0.201-1.965-0.537-3.914-0.789-5.875
		c-0.355-2.761-1.328-5.224-3.334-7.23c-4.227-4.224-8.465-8.436-12.637-12.712c-1.502-1.54-3.301-2.169-5.355-2.41
		c-3.158-0.372-6.305-0.833-9.459-1.237c-2.102-0.268-4.207-0.504-6.311-0.754c-0.488,0.498-0.977,0.995-1.465,1.494
		c-0.002,0.041-0.002,0.083-0.002,0.125c0.336,0.344,0.672,0.688,1.008,1.029c1.066,0.193,2.127,0.426,3.199,0.57
		c4.064,0.555,8.133,1.072,12.201,1.619c1.4,0.189,2.785,0.316,3.898,1.453c4.145,4.23,8.32,8.434,12.553,12.574
		c1.785,1.746,2.584,3.886,2.912,6.238c0.477,3.42,0.879,6.848,1.236,10.279c0.373,3.584,0.711,7.17,0.959,10.764
		C106.793,76.382,107.471,79.339,109.732,81.669z"/>
	<path d="M68.611,28.583c-0.65-0.59-1.303-1.18-1.953-1.769c-0.268-0.126-0.525-0.327-0.807-0.366
		c-2.182-0.318-4.369-0.584-6.546-0.918c-0.492-0.076-1.072-0.238-1.406-0.568c-4.533-4.477-9.023-8.996-13.537-13.494
		c-2.035-2.029-4.107-4.023-6.141-6.057c-1.461-1.461-2.891-2.952-4.322-4.441c-1.316-1.369-3.611-1.219-4.811-0.004
		c-2.939,2.979-5.924,5.912-8.884,8.871c-3.987,3.984-7.974,7.971-11.952,11.969c-1.135,1.141-2.238,2.316-3.355,3.477
		c0.6,0.579,1.199,1.158,1.8,1.738c0.313-0.195,0.677-0.339,0.933-0.592c4.426-4.404,8.83-8.83,13.254-13.235
		c3.283-3.269,6.6-6.505,9.876-9.78c0.527-0.527,0.844-0.59,1.409-0.021c6.939,6.97,13.903,13.914,20.859,20.866
		c3.103,3.1,6.199,6.204,9.308,9.297c0.225,0.223,0.531,0.361,0.799,0.54c0.594-0.604,1.188-1.21,1.781-1.815
		c-0.314-0.403-0.598-0.833-0.943-1.205c-0.648-0.697-1.332-1.361-2.002-2.038c1.172-0.024,2.235,0.168,3.303,0.271
		c0.834,0.082,1.678,0.054,2.518,0.072c0.271-0.225,0.545-0.448,0.818-0.672C68.609,28.667,68.609,28.625,68.611,28.583z"/>
	<path d="M52.897,72.874c-0.25,0.156-0.536,0.271-0.742,0.473c-1.021,0.992-2.057,1.975-3.018,3.023
		c-0.52,0.57-0.846,0.59-1.396,0.031c-3.688-3.738-7.398-7.455-11.123-11.154c-1.365-1.354-2.835-2.604-4.188-3.969
		c-2.647-2.672-5.221-5.416-7.873-8.084c-7.012-7.056-14.049-14.085-21.072-21.13c-0.244-0.245-0.445-0.533-0.668-0.803
		c-0.65,0.664-1.3,1.328-1.952,1.992c0.129,0.257,0.207,0.563,0.397,0.758c1.364,1.4,2.75,2.779,4.131,4.162
		c8.699,8.707,17.4,17.414,26.104,26.119c4.715,4.719,9.43,9.438,14.146,14.152c1.896,1.896,3.686,1.887,5.582-0.021
		c1.012-1.018,2.021-2.037,3.098-3.119c0.218,0.523,0.358,0.912,0.535,1.285c0.906,1.908,3.041,3.27,4.854,3.107
		c-0.885-0.881-1.768-1.762-2.648-2.645C55.673,75.659,54.286,74.269,52.897,72.874z"/>
	<path d="M75.41,83.296c1.295,3.23,3.252,5.969,6.045,8.078c3.711,2.805,7.895,4.703,12.215,6.328c1.01,0.381,1.797,0.063,2.1-0.746
		c0.334-0.893-0.094-1.648-1.174-2.043c-3.26-1.186-6.379-2.664-9.348-4.461c-3.492-2.115-6.025-5.012-7.336-8.918
		c-0.168-0.494-0.375-0.975-0.566-1.461c-0.725,0.727-1.449,1.453-2.174,2.18C75.248,82.601,75.279,82.968,75.41,83.296z"/>
	<path d="M6.034,28.01c0.271-0.281,0.444-0.657,0.663-0.989c-0.601-0.58-1.2-1.159-1.8-1.738c-1.432,1.426-2.919,2.801-4.27,4.298
		c-0.756,0.839-0.747,1.96-0.375,3.013c0.09,0.26,0.402,0.443,0.612,0.66c0.652-0.664,1.302-1.328,1.952-1.992
		C3.893,30.181,4.979,29.112,6.034,28.01z"/>
	<path d="M70.076,27.089c-1.049-0.168-2.096-0.34-3.146-0.492c-0.078-0.01-0.182,0.141-0.271,0.218
		c0.65,0.589,1.303,1.179,1.953,1.769C69.1,28.084,69.588,27.587,70.076,27.089z"/>
	<path d="M67.791,29.38c0.609,0.119,1.219,0.238,1.826,0.357c-0.336-0.342-0.672-0.686-1.008-1.029
		C68.336,28.932,68.063,29.156,67.791,29.38z"/>
	<path d="M60.491,43.914c0.107,0.106,0.214,0.214,0.32,0.32C60.728,44.106,60.621,43.999,60.491,43.914z"/>
	<g>
		<path d="M41.811,47.744c-0.05,0.287-0.152,0.568-0.246,0.909c1.004,0.55,2.024,1.018,2.947,1.635
			c1.113,0.746,2.226,1.535,3.192,2.457c1.912,1.822,1.362,4.326-1.082,5.297c-0.208,0.08-0.421,0.17-0.64,0.205
			c-1.382,0.211-2.46,0.59-2.662,2.334c-0.079,0.699-1.041,1.301-1.759,2.123c-0.025-0.998,0.169-1.734-0.11-2.168
			c-0.324-0.508-1.036-0.809-1.63-1.098c-1.009-0.486-2.051-0.91-3.09-1.332c-5.003-2.027-8.001-10.009-5.259-15.31
			c0.872-1.686,2.173-3.189,3.906-3.476c2.487-0.409,5.167-1.277,7.598,0.442c1.198,0.848,2.464,0.871,3.819,0.369
			c1.122-0.414,2.283-0.726,3.433-1.058c0.351-0.101,0.725-0.122,1.088-0.181c0.029,0.082,0.06,0.164,0.09,0.247
			c-0.149,0.146-0.272,0.343-0.452,0.426c-1.837,0.839-3.674,1.681-5.534,2.464c-0.303,0.127-0.732,0.041-1.079-0.047
			c-0.869-0.223-1.723-0.501-2.585-0.758c-4.386-1.322-8.21,2.327-8.247,6.561c-0.038,4.482,3.825,8.664,8.322,8.892
			c0.383,0.02,0.771-0.09,1.416-0.172c-0.735-0.898-1.365-1.568-1.878-2.314c-0.779-1.139-1.597-2.277-2.172-3.521
			c-0.407-0.881-0.633-1.945-0.597-2.913c0.108-2.792,1.507-4.013,4.239-3.567c1.925,0.313,3.841,0.698,5.767,1.099
			c0.09-0.183,0.188-0.359,0.29-0.534c-0.502-0.34-0.836-0.865-0.967-1.717c1.299-0.739,2.642-1.555,4.032-2.28
			c1.216-0.636,2.425-1.169,3.008-2.604c0.411-1.008,1.279-1.555,2.464-1.063c0.239,0.098,0.473,0.204,0.85,0.364
			c-0.204-1.055-0.374-1.647-0.427-2.248c-0.1-1.167-1.004-1.849-2.101-1.441c-1.48,0.556-2.81,1.485-3.435,2.903
			c-0.861,1.962-2.567,2.074-4.235,2.453c0.959-1.072,1.95-2.094,3.011-3.036c0.68-0.603,0.878-1.272,0.63-2.108
			c-0.245-0.816-0.508-1.63-0.766-2.461c0.52-0.377,0.999-0.724,1.512-1.095c-0.143-0.257-0.3-0.447-0.367-0.669
			c-0.429-1.408-1.784-1.883-2.896-0.943c-0.83,0.698-1.324,1.602-1.105,2.752c0.11,0.587,0.349,1.167,0.355,1.752
			c0.007,0.551-0.029,1.316-0.372,1.615c-1.092,0.957-2.365,1.697-3.509,2.599c-1.266,1-2.504,1.851-4.164,0.844
			c-0.204-0.126-0.5-0.101-0.9-0.171c1.774-0.817,3.396-1.633,5.072-2.311c1.044-0.421,1.154-1.172,1.015-2.066
			c-0.18-1.149-0.445-2.287-0.65-3.433c-0.162-0.914-0.653-1.472-1.607-1.322c-1.735,0.268-3.339-0.174-4.944-0.733
			c-1.327-0.462-2.677-0.748-4.23,0.01c0.151-2.482-0.695-4.35-2.42-5.821c-0.509-0.434-1.041-0.836-1.552-1.266
			c-0.9-0.753-1.794-1.519-2.728-2.313c-1.182,4.485-0.761,8.585,2.227,12.342c-2.038-0.075-3.422,0.968-4.438,2.343
			c-1.317,1.779-2.417,3.722-3.55,5.631c-0.587,0.992-1.044,2.063-1.561,3.099c0.08,0.086,0.16,0.173,0.238,0.259
			c1.945-0.635,4.026-1.013,5.792-1.973c1.857-1.013,3.413-2.582,5.158-3.953c0.144,1.268,0.309,2.589,0.438,3.914
			c0.033,0.324,0.059,0.735-0.105,0.975c-3.848,5.65-0.627,14.841,5.233,17.078c1.152,0.439,2.282,0.945,3.397,1.473
			c1.141,0.537,1.224,0.955,0.494,1.949c-0.272,0.369-0.538,0.746-0.808,1.129c3.024,1.545,5.092,0.371,5.765-2.516
			c1.559-1.07,2.894-1.98,4.294-2.936c0.563,0.898,1.184,0.539,1.8-0.143c0.268-0.297,0.541-0.592,0.823-0.877
			c-0.103-0.102-0.205-0.203-0.308-0.305c-0.216,0.232-0.428,0.473-0.65,0.676c-0.28,0.26-0.549,0.531-0.823,0.795
			c-0.107-0.072-0.213-0.145-0.319-0.217c0.192-0.842,0.383-1.666,0.566-2.467c-0.383-0.373-0.755-0.758-1.141-1.129
			c-1.248-1.197-1.938-2.73-2.139-4.316c-0.21-0.17-0.418-0.335-0.631-0.506c0.219-0.026,0.405-0.039,0.593-0.053
			c-0.04-0.739,0.019-1.48,0.182-2.201c-1.445-0.155-2.89-0.318-4.324-0.54C42.525,46.297,41.993,46.664,41.811,47.744z
			 M40.568,54.595c-2.843-0.672-5.955-6.248-3.971-9.178c0.821-1.214,1.892-1.919,3.394-1.813
			C35.862,47.505,38.343,51.021,40.568,54.595z M41.332,43.253c-0.424-0.518-0.663-0.811-0.905-1.103
			c0.357-0.157,0.714-0.313,1.31-0.569C41.576,42.244,41.501,42.553,41.332,43.253z M54.949,34.261
			c0.593,1.412,1.028,2.436-0.167,3.383c-0.296,0.235-0.431,0.684-0.621,1.045c-0.699,1.32-1.188,1.371-2.012,0.197
			c-0.106-0.15-0.22-0.299-0.506-0.693C52.706,36.93,53.756,35.682,54.949,34.261z M51.335,34.204
			c0.204,0.937,0.023,1.198-1.252,2.037c-0.743-0.596-1.479-1.112-1.171-2.351c0.138-0.557-0.218-1.229-0.283-1.855
			c-0.066-0.628-0.054-1.268-0.085-2.158C50.412,31.054,50.981,32.572,51.335,34.204z M48.695,35.896
			c-1.296,1.258-2.455,2.48-3.744,3.549c-0.307,0.254-1.05-0.023-1.828-0.071C44.717,37.605,47.949,35.552,48.695,35.896z
			 M35.327,34.239c-0.711-0.74-0.644-1.96,0.149-2.728c0.745-0.72,2.076-0.647,2.846,0.154c0.606,0.632,0.47,2.076-0.259,2.762
			C37.331,35.12,36.091,35.033,35.327,34.239z M34.505,34.769c-0.941-0.158-1.404-1.238-1.113-2.595
			c0.304-1.419,1.567-2.436,2.791-2.126C33.983,31.439,33.563,32.692,34.505,34.769z M33.518,25.713
			c0.08,0.466,0.157,0.93,0.304,1.78c-0.478-0.33-0.867-0.46-0.896-0.648c-0.062-0.392,0.066-0.813,0.117-1.225
			C33.203,25.652,33.36,25.681,33.518,25.713z M32.521,23.958c0.532,0.473,0.95,0.942-0.395,1.596
			c-0.015-0.648-0.025-1.121-0.034-1.59C32.233,23.962,32.377,23.96,32.521,23.958z M27.575,21.492
			c1.514,1.565,3.06,3.025,4.433,4.635c0.818,0.961,0.563,2.896-0.265,4.039c-0.263,0.366-0.521,0.731-0.775,1.087
			C28.505,30.453,26.455,24.654,27.575,21.492z M24.98,34.824c1.498,0.451,0.492,1.137,0.34,1.753
			C24.006,36.263,24.006,36.263,24.98,34.824z M23.743,37.005c0.344,0.139,0.668,0.272,0.983,0.402
			c-0.344,1.352-0.604,1.482-1.798,0.828C23.215,37.802,23.453,37.44,23.743,37.005z M21.828,40.248
			c0.271-0.879,0.508-1.581,1.544-0.791C23.22,40.314,22.881,40.78,21.828,40.248z M31.623,35.472
			c-1.388,1.343-2.545,2.533-3.779,3.636c-1.244,1.117-2.742,1.761-4.505,2.13c1.391-2.408,2.629-4.729,4.043-6.931
			c0.773-1.206,1.603-1.158,2.69-0.177c0.157,0.142,0.352,0.242,0.737,0.5c0.181-0.678,0.367-1.218,0.47-1.775
			c0.59-3.199,3.672-5.153,6.755-4.182c1.766,0.555,3.497,1.061,5.389,0.85c0.327-0.037,0.922,0.469,1.044,0.84
			c0.243,0.74-0.275,1.262-0.986,1.297c-0.286,0.015-0.598-0.508-1.033-0.909c-0.02,0.265-0.177,0.937-0.054,0.992
			c0.658,0.301,1.388,0.446,2.169,0.665c-0.032,0.901-4.075,3.047-5.536,2.646c0.142,0.757,0.142,0.757,1.345,0.918
			c-1.917,1.457-4.578,1.832-4.575-0.276c0.356-0.018,0.647-0.035,0.937-0.048c1.439-0.056,2.356-0.832,2.665-2.266
			c0.289-1.341-0.247-2.301-1.61-2.971c-0.319-0.156-0.684-0.367-0.852-0.657c-0.591-1.022-1.385-0.895-2.209-0.44
			c-2.355,1.295-2.81,4.241-1.017,6.299c0.18,0.206,0.259,0.516,0.346,0.79c0.219,0.699,0.416,1.407,0.651,2.213
			c-0.705,0.457-1.536,0.995-2.518,1.632C32.002,38.676,31.831,37.228,31.623,35.472z"/>
	</g>
	<path d="M60.881,48.117c-0.058-0.365-0.122-0.715-0.167-1.071c-0.017-0.13-0.045-0.328,0.026-0.39
		c0.773-0.654,0.374-1.598,0.197-2.171c-0.028-0.094-0.077-0.173-0.127-0.251c-0.106-0.106-0.213-0.214-0.32-0.32
		c-0.566-0.368-1.493-0.323-2.121,0.121c-0.412,0.29-0.81,0.606-1.213,0.911c0.151,0.093,0.305,0.182,0.446,0.288
		c0.16-0.075,0.313-0.146,0.477-0.222c0.053,0.251,0.101,0.501,0.128,0.749c0.779,0.791,1.572,1.567,2.354,2.356
		c0.005,0.004,0.009,0.006,0.015,0.01C60.616,48.156,60.697,48.125,60.881,48.117z"/>
	<path d="M48.897,44.755c-0.103,0.175-0.2,0.352-0.29,0.534c0.999,0.208,2.002,0.417,3.01,0.627
		c0.048-0.073,0.094-0.146,0.144-0.219c-0.494-0.184-0.989-0.358-1.5-0.446C49.718,45.158,49.264,45.004,48.897,44.755z"/>
	<path d="M53.461,55.593c-0.414,0.127-0.762,0.473-1.102,0.842c0.103,0.102,0.205,0.203,0.308,0.305
		c0.113-0.115,0.225-0.234,0.343-0.344c0.746-0.688,1.553-0.986,2.533-0.406c0.2,0.115,0.449,0.162,0.77,0.225
		c-0.54-0.543-1.081-1.084-1.62-1.627C54.484,55.024,54.144,55.386,53.461,55.593z"/>
	<path d="M50.906,47.335c-0.969-0.112-1.938-0.215-2.908-0.319c-0.163,0.721-0.222,1.462-0.182,2.201
		c1.834-0.129,2.287,0.401,2.708,2.698c-0.911-0.73-1.784-1.43-2.67-2.139c0.2,1.586,0.891,3.119,2.139,4.316
		c0.386,0.371,0.758,0.756,1.141,1.129c0.096-0.416,0.192-0.836,0.281-1.223c0.675-0.201,1.36-0.404,2.077-0.617
		c-0.088-0.088-0.175-0.176-0.263-0.264c-0.176,0.055-0.353,0.109-0.528,0.164c-0.694,0.221-1.271,0.188-1.509-0.619
		c-0.336-1.139-0.64-2.285-0.981-3.515c0.174,0.037,0.352,0.061,0.53,0.08C50.634,48.56,50.706,47.931,50.906,47.335z"/>
</g>
</svg>
