<?xml version="1.0" encoding="utf-8"?>
<!-- Generator: Adobe Illustrator 16.0.0, SVG Export Plug-In . SVG Version: 6.00 Build 0)  -->
<!DOCTYPE svg PUBLIC "-//W3C//DTD SVG 1.1//EN" "http://www.w3.org/Graphics/SVG/1.1/DTD/svg11.dtd">
<svg version="1.1" id="Capa_1" xmlns="http://www.w3.org/2000/svg" xmlns:xlink="http://www.w3.org/1999/xlink" x="0px" y="0px"
	 width="123.74px" height="145.7px" viewBox="0 0 123.74 145.7" enable-background="new 0 0 123.74 145.7" xml:space="preserve">
<g>
	<g>
		<path fill="#010202" d="M50.958,34.637c0,0.326,0.134,0.463,0.406,0.406c0.217,0,0.448-0.253,0.691-0.772
			c0.244-0.512,0.662-0.796,1.26-0.854c-0.272,0-0.543,0-0.814,0C51.474,33.584,50.958,33.99,50.958,34.637z"/>
		<path fill="#010202" d="M58.033,33.664c0.541-0.162,1.015-0.042,1.424,0.365c0.407,0.408,0.716,0.585,0.934,0.53
			c0.326-0.161,0.406-0.406,0.244-0.735C60.2,33.124,59.333,33.069,58.033,33.664z"/>
		<path fill="#010202" d="M120.229,120.007c-0.162-0.104-0.609-0.363-1.34-0.771c-0.732-0.404-1.314-0.756-1.75-1.057
			c-0.432-0.295-1.002-0.814-1.707-1.543c-0.705-0.73-1.262-1.506-1.666-2.318c-0.408-0.813-0.801-1.908-1.18-3.291
			s-0.596-2.91-0.65-4.596c-0.76,0.652-1.18,1.941-1.26,3.863c-0.082,1.928,0.326,3.893,1.219,5.895
			c0.895,2.008,2.234,3.309,4.025,3.904c1.736,0.596,3.131,1.234,4.188,1.912c1.057,0.676,1.734,1.447,2.031,2.313
			c0.299,0.867-0.201,1.803-1.504,2.805c-1.299,1.004-3.387,1.994-6.258,2.971c-3.959,1.352-6.764,2.506-8.418,3.455
			c-1.65,0.947-4.076,2.746-7.275,5.406c-2.17,1.785-4.473,2.75-6.912,2.887c-2.439,0.135-4.418-0.76-5.934-2.684
			c-1.518-1.924-2.006-4.648-1.463-8.172c1.025-6.771,1-12.057-0.082-15.854c-0.869-2.98-1.057-5.611-0.57-7.887
			c0.488-2.279,1.246-3.602,2.275-3.982c1.029-0.377,2.141,0.434,3.334,2.439c0.109,0.27,0.354,0.801,0.732,1.584
			c0.377,0.789,0.689,1.342,0.936,1.67c0.242,0.322,0.607,0.746,1.098,1.26c0.488,0.514,1.098,0.881,1.828,1.094
			c0.73,0.221,1.586,0.354,2.563,0.406c1.84,0.059,3.494-0.32,4.959-1.137c1.461-0.814,2.561-1.723,3.293-2.727
			c0.73-0.998,1.463-1.961,2.195-2.887c0.73-0.918,1.369-1.436,1.91-1.543c0.596-0.107,1.139-0.703,1.625-1.787
			c0.488-1.084,0.813-2.588,0.975-4.514c0.162-1.922,0.025-4.209-0.406-6.869c-0.813-4.717-2.426-9.893-4.838-15.53
			c-2.412-5.636-5.109-10.053-8.09-13.254C92.749,55.776,89.144,49.87,87.3,43.747c-1.896-6.451-2.711-12.25-2.438-17.401
			c0.27-3.685-0.529-7.683-2.4-11.992c-1.869-4.309-4.348-7.601-7.439-9.877c-1.949-1.464-4.361-2.588-7.236-3.375
			c-2.873-0.784-5.746-1.15-8.617-1.096c-3.523,0-6.342,0.568-8.457,1.705c-4.337,2.335-7.208,5.166-8.618,8.499
			c-1.409,3.332-2.06,7.437-1.95,12.316c0.216,10.731,0.65,19.136,1.3,25.204c-0.761,2.82-4.121,8.105-10.082,15.854
			c-1.084,1.086-2.142,2.548-3.17,4.39c-1.03,1.846-1.844,3.498-2.439,4.961c-0.598,1.465-1.396,3.577-2.399,6.342
			c-1.004,2.764-1.722,4.718-2.155,5.855c-0.379,0.973-0.975,2.113-1.789,3.412c-0.814,1.303-1.464,2.578-1.951,3.82
			c-0.488,1.25-0.762,2.66-0.814,4.23c-0.054,1.195,0,2.225,0.162,3.088c0.217,1.303,0.623,1.707,1.22,1.219
			c2.439-1.842,5.501-0.756,9.188,3.252c2.601,2.822,7.181,9.381,13.741,19.68c0.541,0.922,1.084,1.908,1.625,2.967
			c0.542,1.059,1.059,2.465,1.545,4.227c0.487,1.762,0.691,3.348,0.61,4.758c-0.081,1.406-0.705,2.709-1.87,3.902
			c-1.167,1.191-2.916,1.951-5.244,2.275c-1.248,0.164-2.752,0.055-4.513-0.324c-1.762-0.381-3.998-1.004-6.708-1.871
			c-2.712-0.867-4.715-1.465-6.017-1.787c-1.898-0.438-4.594-0.99-8.089-1.668c-3.497-0.676-5.787-1.178-6.871-1.502
			c-1.844-0.49-2.846-1.195-3.009-2.117c-0.163-0.758,0.216-2.061,1.139-3.902c0.921-1.844,1.382-3.17,1.382-3.982
			c0.053-0.594,0.027-1.193-0.081-1.787c-0.109-0.598-0.231-1.059-0.365-1.385c-0.136-0.324-0.365-0.814-0.691-1.463
			c-0.325-0.65-0.543-1.139-0.65-1.463c-0.975-2.277-1.112-3.82-0.406-4.633c0.489-0.705,1.653-0.979,3.498-0.814
			c2.764,0.271,5.013-0.137,6.749-1.219c2.871-1.791,3.74-4.662,2.601-8.621c0,1.846-0.325,3.227-0.976,4.148
			c-0.65,0.92-1.788,1.867-3.414,2.846c-0.923,0.543-2.548,0.865-4.879,0.977c-2.332,0.105-3.874,0.482-4.634,1.135
			c-0.543,0.49-0.826,1.221-0.854,2.195c-0.028,0.979,0.095,1.971,0.366,2.971c0.27,1.004,0.542,2.154,0.813,3.455
			c0.271,1.299,0.378,2.383,0.325,3.254c-0.054,0.594-0.542,2.072-1.463,4.428c-0.923,2.357-1.112,4.162-0.57,5.408
			c0.271,0.598,0.731,1.125,1.382,1.588c0.65,0.457,1.557,0.85,2.724,1.178c1.165,0.322,2.235,0.582,3.211,0.771
			c0.975,0.186,2.33,0.432,4.064,0.73c1.736,0.299,3.117,0.557,4.148,0.775c3.467,0.701,7.425,1.867,11.871,3.494
			c4.443,1.625,7.453,2.465,9.025,2.521c1.517,0.055,2.967-0.26,4.35-0.934c1.382-0.68,2.56-1.451,3.535-2.318
			c0.976-0.871,2.426-1.684,4.35-2.439c1.924-0.76,4.078-1.164,6.464-1.221c1.085-0.057,2.655-0.121,4.716-0.203
			c2.06-0.082,3.603-0.121,4.634-0.121c4.66,0,8.184,0.025,10.57,0.08c1.625,0.055,2.9,0.311,3.82,0.771
			c0.922,0.459,1.516,0.99,1.789,1.588c0.27,0.594,0.715,1.283,1.342,2.07c0.621,0.787,1.424,1.424,2.4,1.91
			c2.059,0.977,4.473,1.367,7.234,1.178c2.766-0.188,4.607-0.715,5.529-1.584c1.518-1.463,3.564-3.199,6.139-5.201
			c2.572-2.008,4.891-3.525,6.955-4.557c0.43-0.219,1.16-0.566,2.193-1.057c1.027-0.484,1.896-0.908,2.6-1.262
			c0.705-0.354,1.557-0.799,2.559-1.34c1.006-0.545,1.818-1.047,2.441-1.508c0.623-0.459,1.26-0.99,1.91-1.584
			c0.652-0.598,1.072-1.195,1.26-1.785c0.189-0.602,0.256-1.205,0.203-1.832c-0.055-0.621-0.379-1.273-0.977-1.949
			C122.155,121.327,121.315,120.659,120.229,120.007z M79.169,43.42c0.166-0.105,0.273-0.146,0.328-0.122
			c0.051,0.029,0.162,0.138,0.324,0.324c0.162,0.19,0.311,0.365,0.447,0.531c0.135,0.161,0.326,0.38,0.57,0.647
			c0.244,0.273,0.5,0.488,0.771,0.652c0.326,0.219,0.719,0.365,1.18,0.447c0.461,0.083,0.814,0.22,1.057,0.406
			c0.244,0.19,0.42,0.503,0.529,0.934c0.107,0.598,0.012,1.14-0.285,1.625c-0.299,0.489-0.691,0.708-1.18,0.651
			c-0.975-0.216-2.031-1.069-3.17-2.561C78.604,45.466,78.411,44.29,79.169,43.42z M69.089,11.835
			c0.271-0.354,0.434-0.635,0.488-0.854c0.107-0.326,0.121-0.664,0.039-1.016c-0.08-0.351-0.055-0.705,0.08-1.058
			c0.137-0.35,0.449-0.552,0.936-0.611c0.488,0,1.141,0.406,1.951,1.22c0.162,0.108,0.42,0.274,0.773,0.489
			c0.352,0.216,0.596,0.406,0.73,0.568c0.137,0.161,0.205,0.298,0.205,0.406c-0.109,0.271-0.354,0.46-0.732,0.568
			c-0.379,0.107-0.787,0.161-1.219,0.161c-0.436,0-0.678,0.028-0.732,0.082c-0.434,0.162-0.842,0.406-1.219,0.732
			c-0.381,0.326-0.678,0.567-0.895,0.734c-0.219,0.162-0.434,0.162-0.65,0c-0.217-0.327-0.299-0.556-0.244-0.693
			C68.655,12.43,68.817,12.186,69.089,11.835z M29.738,72.688c0.378-0.432,0.65-0.783,0.812-1.058
			c0.162-0.266,0.311-0.634,0.448-1.096c0.134-0.46,0.257-0.796,0.366-1.015c0.109-0.217,0.271-0.299,0.488-0.244
			c0.107,0.058,0.19,0.106,0.244,0.161c0.053,0.058,0.082,0.124,0.082,0.204c0,0.082,0,0.161,0,0.244
			c0,0.082-0.015,0.189-0.041,0.324c-0.028,0.139-0.068,0.259-0.121,0.367c-0.055,0.107-0.109,0.271-0.162,0.486
			c-0.054,0.219-0.109,0.406-0.163,0.567c-0.218,0.546-0.557,1.033-1.016,1.464c-0.461,0.436-0.8,0.625-1.015,0.567
			C29.331,73.56,29.359,73.232,29.738,72.688z M82.384,116.88c0.459,2.844,0.635,4.836,0.527,5.973
			c-0.107,1.738-0.473,4.174-1.098,7.318c-0.623,3.145-1.016,5.23-1.178,6.262c-1.139-0.059-1.791-0.475-1.953-1.262
			c-0.16-0.785,0-1.803,0.486-3.047c1.193-3.635,1.818-6.129,1.871-7.48c0.109-2.494-0.16-3.902-0.811-4.23
			c-0.598-0.432-1.52,0.381-2.766,2.439c-2.387,3.904-7.182,6.264-14.391,7.076c-6.503,0.863-11.003-0.111-13.496-2.926
			c-0.543-0.383-1.086-0.449-1.627-0.207c-0.542,0.244-0.894,0.506-1.056,0.773c-0.055,0.105,0,0.271,0.162,0.488
			c0.161,0.215,0.419,0.541,0.771,0.975c0.353,0.432,0.638,0.867,0.855,1.303c2.114,3.684,1.924,6.178-0.57,7.48
			c0-2.498-0.189-4.406-0.568-5.732c-0.38-1.328-1.139-2.793-2.277-4.391c-1.139-1.6-1.925-2.809-2.359-3.619
			c1.625-0.162,2.859-0.783,3.7-1.867c0.841-1.084,1.22-2.248,1.138-3.498c-0.08-1.244-0.557-2.277-1.423-3.09
			c-0.487-0.488-3.008-2.561-7.562-6.219c-4.553-3.658-7.372-6.109-8.457-7.357c-0.217-0.217-0.867-0.758-1.951-1.627
			c-1.083-0.865-1.763-1.625-2.033-2.275c-2.494-5.475-2.765-9.975-0.813-13.498l0.325-0.406c0.271-0.051,0.297,0.436,0.081,1.463
			c-0.325,1.521-0.435,3.037-0.325,4.553c0.217,3.416,1.192,5.963,2.927,7.645c1.139,1.139,1.923,1.055,2.358-0.246
			c0.325-0.432,0.474-2.033,0.446-4.795c-0.028-2.764,0.012-4.633,0.123-5.609c0.434-3.09,1.719-6.91,3.861-11.463
			c2.14-4.556,3.835-6.995,5.083-7.318c-0.975-1.569-1.288-3.277-0.935-5.123c0.351-1.841,0.92-3.415,1.708-4.717
			c0.786-1.299,1.585-2.805,2.398-4.51c0.814-1.708,1.22-3.239,1.22-4.596c0-0.377,0.026-0.652,0.08-0.813
			c0.162-0.486,0.84,0.11,2.034,1.787c2.276,3.363,3.984,5.342,5.123,5.937c1.191,0.651,2.521,0.625,3.983-0.08
			c1.465-0.705,3.266-1.871,5.408-3.497c2.14-1.626,3.97-2.817,5.488-3.58c0.162-0.051,0.42-0.174,0.773-0.366
			c0.352-0.186,0.621-0.323,0.813-0.406c0.191-0.079,0.436-0.203,0.732-0.365s0.527-0.298,0.689-0.406s0.326-0.229,0.488-0.366
			c0.16-0.137,0.27-0.27,0.324-0.406c0.053-0.137,0.08-0.256,0.08-0.365c-0.107-0.489-0.338-0.787-0.689-0.896
			c-0.354-0.107-0.828-0.041-1.424,0.204c-0.598,0.244-1.26,0.568-1.992,0.976c-0.732,0.406-1.545,0.869-2.439,1.381
			c-0.895,0.519-1.803,0.991-2.724,1.425c-0.922,0.435-1.898,0.813-2.928,1.139c-1.03,0.324-2.006,0.516-2.926,0.568
			c-2.278,0.058-4.094-0.54-5.448-1.787c-0.868-0.814-1.329-1.328-1.383-1.547c-0.055-0.216,0.189-0.266,0.732-0.161
			c2.927,0.381,5.066,0.435,6.423,0.161c1.41-0.216,3.307-0.838,5.691-1.866c0.488-0.216,1.72-0.747,3.699-1.589
			c1.977-0.838,3.51-1.423,4.594-1.747c0.65-0.162,1.098-0.418,1.342-0.772c0.242-0.353,0.322-0.677,0.242-0.975
			c-0.08-0.299-0.258-0.531-0.529-0.692c-0.596-0.324-1.137-0.108-1.623,0.651c-0.273,0.485-0.844,0.963-1.709,1.423
			c-0.869,0.461-1.666,0.814-2.4,1.059c-0.73,0.241-1.668,0.527-2.805,0.851c-1.138,0.327-1.761,0.518-1.869,0.571
			c-2.982,0.921-5.747,1.328-8.293,1.22c-1.193-0.055-2.154-0.229-2.886-0.531c-0.731-0.295-1.233-0.652-1.505-1.058
			s-0.705-0.918-1.3-1.543c-0.598-0.622-1.274-1.149-2.034-1.585c-0.543-0.271-0.745-0.759-0.61-1.464
			c0.134-0.705,0.556-1.436,1.26-2.195c0.053-0.054,0.61-0.391,1.668-1.016c1.056-0.622,1.8-1.261,2.236-1.912
			c0.486-0.755,1.328-1.543,2.52-2.356c0.053-0.216,0.093-0.813,0.121-1.788c0.025-0.979-0.231-2.033-0.773-3.173
			c-0.543-1.138-1.273-1.705-2.195-1.705c-1.301-0.054-2.223,0.323-2.763,1.137c-0.544,0.814-0.788,1.817-0.732,3.008
			c0.053,1.033,0.312,1.939,0.773,2.725c0.461,0.788,0.881,1.178,1.261,1.178c0.596-0.055,0.785,0.161,0.57,0.651
			c-0.326,0.598-0.762,0.976-1.301,1.138c-0.38,0.111-0.8-0.256-1.261-1.095c-0.46-0.838-0.813-1.854-1.056-3.049
			c-0.243-1.195-0.339-2.198-0.284-3.011c0.107-1.676,0.555-3.29,1.34-4.836c0.786-1.543,1.91-2.29,3.375-2.235
			c1.517,0.058,2.736,0.976,3.659,2.766c0.92,1.788,1.354,4.227,1.3,7.317c0.161,0.381,0.582,0.516,1.26,0.407
			c0.677-0.107,1.572-0.125,2.684-0.042c1.111,0.08,1.91,0.366,2.399,0.854c0.053,0,0.081-0.406,0.081-1.22
			c-0.977-6.833,1.436-10.461,7.236-10.898c0.867,0.163,1.598,0.366,2.195,0.61c0.596,0.245,1.23,0.652,1.91,1.219
			c0.676,0.569,1.246,1.398,1.709,2.482c0.457,1.085,0.824,2.439,1.098,4.064c0,0.274,0,1.278,0,3.007
			c0,1.738-0.354,2.713-1.059,2.928c-1.137,0.381-1.949,0.365-2.439-0.042c-0.486-0.406-0.434-1.125,0.162-2.153
			c0.541-1.356,0.434-2.928-0.324-4.717c-0.76-1.788-2.143-2.601-4.148-2.438c-1.354,0.054-2.332,0.787-2.928,2.194
			c-0.598,1.41-0.813,2.793-0.648,4.148c0.16,1.356,0.459,2.058,0.893,2.112c0.326,0.059,1.287,0.489,2.887,1.303
			c1.6,0.813,2.805,1.298,3.617,1.463c2.115,0.433,3.32,1.113,3.619,2.033c0.297,0.921,0.176,2.262-0.365,4.024
			c-0.543,1.763-0.705,3.211-0.488,4.348c0.217,1.195,0.623,2.277,1.221,3.252c0.594,0.979,1.23,1.872,1.91,2.684
			c0.676,0.813,1.475,2.335,2.396,4.554c0.922,2.223,1.762,5.016,2.521,8.376c0.053,0.055,0.256,0.242,0.609,0.568
			c0.352,0.324,0.703,0.731,1.057,1.22c0.352,0.485,0.775,1.152,1.26,1.991c0.486,0.842,1.016,2.074,1.586,3.699
			c0.568,1.627,1.098,3.498,1.584,5.61c0.596,2.495,0.908,5.396,0.936,8.698c0.025,3.309,0.244,5.568,0.648,6.789
			c0.408,1.223,1.451,1.723,3.131,1.506c2.113-0.105,3.467-1.244,4.066-3.416c1.787-6.287,0.324-13.822-4.391-22.6
			c-1.789-3.418-3.334-5.667-4.635-6.749c1.896,1.083,3.848,3.116,5.854,6.099s3.279,5.771,3.822,8.375
			c0.053,0.271,0.201,0.991,0.447,2.154c0.244,1.164,0.379,1.844,0.406,2.031c0.025,0.191,0.133,0.748,0.324,1.668
			c0.191,0.922,0.283,1.52,0.283,1.789c0,0.271,0.025,0.799,0.082,1.584c0.051,0.787,0.039,1.396-0.041,1.828
			c-0.08,0.438-0.16,1.016-0.244,1.752c-0.08,0.73-0.217,1.436-0.404,2.111c-0.193,0.682-0.395,1.424-0.609,2.236
			c2.98,1.301,4.471,2.439,4.471,3.416c-1.139-0.918-2.764-1.531-4.879-1.832c-2.113-0.295-4.08-0.01-5.893,0.855
			c-1.816,0.867-2.752,2.305-2.805,4.311c-1.951,0-3.334,0.486-4.148,1.463c-1.191,1.41-1.816,3.318-1.869,5.734
			C81.72,111.409,81.921,114.034,82.384,116.88z M48.845,28.623c-0.162-0.055-0.3-0.216-0.406-0.488c0-0.485,0.244-0.674,0.73-0.567
			c0.324,0.11,0.637,0.517,0.936,1.219c0.297,0.708,0.365,1.521,0.203,2.439c0,0.162-0.08,0.244-0.244,0.244
			c-0.597,0-0.813-0.54-0.649-1.626C49.578,29.029,49.386,28.623,48.845,28.623z M69.903,29.925l-0.164,0.241
			c-0.434,0.274-0.65,0.326-0.65,0.165c-0.219-1.464-0.703-2.302-1.465-2.521c-0.107-0.054-0.217-0.107-0.324-0.161
			c-0.379-0.327-0.191-0.516,0.57-0.568c0.16-0.055,0.406,0.024,0.73,0.241c0.324,0.219,0.623,0.559,0.895,1.016
			C69.767,28.8,69.903,29.328,69.903,29.925z"/>
	</g>
</g>
</svg>
