<?xml version="1.0" encoding="utf-8"?>
<!-- Generator: Adobe Illustrator 16.0.0, SVG Export Plug-In . SVG Version: 6.00 Build 0)  -->
<!DOCTYPE svg PUBLIC "-//W3C//DTD SVG 1.1//EN" "http://www.w3.org/Graphics/SVG/1.1/DTD/svg11.dtd">
<svg version="1.1" id="Capa_1" xmlns="http://www.w3.org/2000/svg" xmlns:xlink="http://www.w3.org/1999/xlink" x="0px" y="0px"
	 width="125.55px" height="93.91px" viewBox="0 0 125.55 93.91" enable-background="new 0 0 125.55 93.91" xml:space="preserve">
<path fill-rule="evenodd" clip-rule="evenodd" d="M105.873,67.6c1.904,0,3.602-0.053,5.295,0.01
	c7.139,0.256,13.396,5.637,14.15,12.736c0.463,4.365,0.086,8.822,0.086,13.475c-17.258,0-34.516,0-51.951,0
	c-1.494-5.25-4.75-8.734-10.656-8.617c-5.623,0.111-8.818,3.455-10.336,8.713c-17.34,0-34.619,0-52.461,0
	c0.293-5.143,0.043-10.229,0.989-15.082c1.312-6.721,7.491-11.133,14.367-11.238c1.511-0.023,3.023-0.004,4.883-0.004
	c0-1.369-0.009-2.447,0.001-3.527c0.08-8.354-0.282-16.744,0.332-25.06C22.247,16.417,41.514-0.569,64.305,0.008
	c22.334,0.566,40.592,18.644,41.293,41.092c0.256,8.181,0.07,16.375,0.096,24.562C105.695,66.162,105.783,66.662,105.873,67.6z
	 M93.184,67.477c0-9.813,0.01-19.34-0.018-28.871c-0.004-0.755-0.25-1.511-0.402-2.262c-2.834-14.122-16.33-24.693-30.789-24.117
	c-14.953,0.595-28.025,12.304-29.1,26.898c-0.674,9.156-0.195,18.396-0.217,27.599c0,0.221,0.193,0.441,0.338,0.752
	C53,67.477,72.996,67.477,93.184,67.477z"/>
</svg>
