<?xml version="1.0" encoding="utf-8"?>
<!-- Generator: Adobe Illustrator 16.0.0, SVG Export Plug-In . SVG Version: 6.00 Build 0)  -->
<!DOCTYPE svg PUBLIC "-//W3C//DTD SVG 1.1//EN" "http://www.w3.org/Graphics/SVG/1.1/DTD/svg11.dtd">
<svg version="1.1" id="Capa_1" xmlns="http://www.w3.org/2000/svg" xmlns:xlink="http://www.w3.org/1999/xlink" x="0px" y="0px"
	 width="267.08px" height="295.43px" viewBox="0 0 267.08 295.43" enable-background="new 0 0 267.08 295.43" xml:space="preserve">
<g>
	<g>
		<path fill="#010202" d="M39.513,295.348c-1.974,0-3.789-0.332-5.444-0.994c-1.656-0.662-3.086-1.647-4.289-2.959
			c-1.203-1.313-2.136-2.946-2.798-4.908c-0.663-1.959-0.994-4.209-0.994-6.75c0-2.528,0.321-4.731,0.964-6.61
			c0.642-1.879,1.578-3.515,2.808-4.906c1.203-1.352,2.63-2.383,4.279-3.094c1.648-0.709,3.494-1.064,5.535-1.064
			c1.014,0,1.964,0.076,2.849,0.226c0.886,0.147,1.707,0.338,2.464,0.565c0.649,0.203,1.314,0.457,1.997,0.763
			c0.683,0.303,1.355,0.639,2.018,1.004v4.846h-0.324c-0.352-0.324-0.805-0.717-1.358-1.176c-0.555-0.461-1.23-0.914-2.027-1.359
			c-0.771-0.418-1.609-0.764-2.515-1.033c-0.906-0.271-1.954-0.405-3.144-0.405c-1.284,0-2.501,0.264-3.649,0.791
			c-1.149,0.526-2.156,1.305-3.021,2.332c-0.852,1.026-1.514,2.317-1.987,3.872c-0.473,1.556-0.709,3.306-0.709,5.253
			c0,2.067,0.25,3.848,0.75,5.342s1.183,2.754,2.048,3.78c0.838,1,1.825,1.755,2.961,2.261c1.135,0.508,2.338,0.762,3.608,0.762
			c1.163,0,2.237-0.143,3.225-0.426c0.986-0.285,1.865-0.644,2.636-1.074c0.743-0.42,1.386-0.85,1.927-1.289
			c0.54-0.438,0.966-0.813,1.277-1.125h0.3v4.785c-0.662,0.311-1.287,0.609-1.875,0.893c-0.589,0.283-1.302,0.562-2.14,0.832
			c-0.879,0.283-1.693,0.5-2.443,0.648C41.692,295.276,40.716,295.348,39.513,295.348z"/>
		<path fill="#010202" d="M62.182,295.328c-3.609,0-6.411-1.019-8.404-3.054c-1.994-2.032-2.991-4.924-2.991-8.668
			c0-3.688,0.967-6.627,2.899-8.809c1.934-2.184,4.461-3.275,7.584-3.275c1.405,0,2.649,0.203,3.73,0.607
			c1.082,0.406,2.028,1.041,2.839,1.906c0.812,0.864,1.433,1.924,1.865,3.174s0.649,2.781,0.649,4.594v2.066H54.659
			c0,2.637,0.662,4.649,1.987,6.043c1.324,1.393,3.156,2.088,5.495,2.088c0.838,0,1.659-0.094,2.463-0.283
			c0.805-0.188,1.531-0.434,2.181-0.729c0.688-0.312,1.271-0.611,1.743-0.902c0.474-0.291,0.865-0.564,1.176-0.82h0.224v4.156
			c-0.446,0.176-1.001,0.395-1.663,0.658c-0.662,0.263-1.257,0.471-1.784,0.619c-0.743,0.202-1.416,0.356-2.018,0.467
			C63.861,295.273,63.101,295.328,62.182,295.328z M66.643,280.951c-0.027-1.025-0.148-1.912-0.365-2.656
			c-0.216-0.742-0.526-1.371-0.933-1.885c-0.445-0.568-1.017-1-1.713-1.298c-0.696-0.299-1.559-0.446-2.586-0.446
			c-1.014,0-1.875,0.151-2.585,0.457c-0.71,0.303-1.355,0.746-1.937,1.328c-0.567,0.594-1,1.254-1.298,1.977
			c-0.297,0.723-0.486,1.564-0.567,2.523H66.643z"/>
		<path fill="#010202" d="M92.009,294.801h-3.812v-12.896c0-1.038-0.051-2.01-0.152-2.907c-0.102-0.9-0.294-1.619-0.578-2.16
			c-0.311-0.568-0.743-0.99-1.298-1.269c-0.554-0.276-1.311-0.416-2.271-0.416c-0.946,0-1.923,0.255-2.93,0.763
			c-1.008,0.506-1.991,1.166-2.951,1.977v16.91h-3.812v-22.648h3.812v2.515c1.136-1.015,2.258-1.791,3.366-2.332
			c1.108-0.541,2.277-0.812,3.508-0.812c2.23,0,3.975,0.732,5.231,2.199c1.258,1.467,1.886,3.594,1.886,6.377L92.009,294.801
			L92.009,294.801z"/>
		<path fill="#010202" d="M104.216,295.246c-2.082,0-3.704-0.593-4.866-1.773c-1.163-1.184-1.744-3.053-1.744-5.606v-12.552H95.03
			v-3.162h2.575v-6.51h3.813v6.51h7.016v3.162h-7.016v10.769c0,1.147,0.02,2.033,0.061,2.656c0.04,0.62,0.195,1.202,0.466,1.741
			c0.23,0.476,0.602,0.828,1.115,1.064c0.514,0.238,1.21,0.354,2.089,0.354c0.622,0,1.224-0.092,1.805-0.272
			c0.581-0.182,1-0.334,1.257-0.457h0.224v3.428c-0.717,0.203-1.443,0.361-2.18,0.478
			C105.517,295.189,104.837,295.246,104.216,295.246z"/>
		<path fill="#010202" d="M130.799,294.801h-21.088v-3.732l16.16-22.891H110.44v-3.568h19.953v3.63l-16.344,22.993h16.749
			L130.799,294.801L130.799,294.801z"/>
		<path fill="#010202" d="M151.987,283.486c0,3.812-0.92,6.757-2.758,8.83c-1.838,2.074-4.285,3.113-7.34,3.113
			c-3.149,0-5.627-1.072-7.433-3.215c-1.804-2.144-2.706-5.053-2.706-8.729c0-3.784,0.929-6.725,2.788-8.819
			c1.858-2.097,4.31-3.144,7.351-3.144c3.055,0,5.502,1.045,7.34,3.133C151.067,276.744,151.987,279.688,151.987,283.486z
			 M148.054,283.486c0-2.934-0.533-5.112-1.602-6.539c-1.068-1.426-2.59-2.139-4.563-2.139c-1.988,0-3.519,0.713-4.594,2.139
			c-1.074,1.427-1.611,3.605-1.611,6.539c0,2.839,0.537,4.99,1.611,6.457c1.075,1.468,2.605,2.201,4.594,2.201
			c1.959,0,3.478-0.721,4.553-2.16C147.517,288.545,148.054,286.379,148.054,283.486z"/>
		<path fill="#010202" d="M173.704,294.801h-3.813v-12.896c0-1.038-0.051-2.01-0.151-2.907c-0.103-0.9-0.294-1.619-0.578-2.16
			c-0.312-0.568-0.743-0.99-1.298-1.269c-0.555-0.276-1.311-0.416-2.271-0.416c-0.945,0-1.923,0.255-2.93,0.763
			c-1.008,0.506-1.991,1.166-2.951,1.977v16.91h-3.813v-22.648h3.813v2.515c1.137-1.015,2.258-1.791,3.366-2.332
			s2.276-0.812,3.508-0.812c2.229,0,3.976,0.732,5.231,2.199c1.258,1.467,1.886,3.594,1.886,6.377L173.704,294.801L173.704,294.801z
			"/>
		<path fill="#010202" d="M213.69,268.076c1.148,1.323,2.041,2.967,2.677,4.928c0.636,1.959,0.952,4.197,0.952,6.711
			c0,2.447-0.312,4.658-0.932,6.631c-0.623,1.973-1.521,3.629-2.697,4.967c-1.229,1.406-2.666,2.443-4.31,3.113
			c-1.644,0.668-3.45,1.004-5.424,1.004c-2.041,0-3.88-0.346-5.517-1.035c-1.635-0.688-3.041-1.717-4.217-3.082
			c-1.162-1.338-2.056-2.985-2.677-4.946c-0.622-1.959-0.935-4.177-0.935-6.65c0-2.541,0.314-4.771,0.943-6.691
			s1.523-3.567,2.688-4.946c1.162-1.338,2.564-2.355,4.208-3.052c1.642-0.696,3.478-1.045,5.505-1.045
			c2.055,0,3.906,0.357,5.557,1.074C211.162,265.773,212.556,266.779,213.69,268.076z M213.144,279.715c0-2-0.217-3.771-0.648-5.313
			s-1.041-2.817-1.824-3.832c-0.798-1.041-1.762-1.821-2.891-2.342c-1.129-0.52-2.396-0.781-3.801-0.781
			c-1.461,0-2.734,0.255-3.822,0.763c-1.09,0.506-2.053,1.293-2.891,2.36c-0.798,1.027-1.408,2.318-1.834,3.873
			c-0.427,1.556-0.64,3.313-0.64,5.271c0,3.961,0.831,6.992,2.494,9.094c1.661,2.103,3.894,3.152,6.69,3.152
			c2.799,0,5.024-1.051,6.682-3.152C212.315,286.707,213.144,283.676,213.144,279.715z"/>
		<path fill="#010202" d="M230.135,295.348c-2.188,0-4.052-0.227-5.586-0.68s-2.978-1.01-4.329-1.672v-5.029h0.283
			c1.325,1.244,2.825,2.207,4.502,2.889c1.676,0.685,3.292,1.025,4.848,1.025c2.217,0,3.893-0.463,5.027-1.389
			c1.135-0.927,1.703-2.146,1.703-3.66c0-1.203-0.298-2.183-0.893-2.939c-0.596-0.757-1.541-1.317-2.838-1.684
			c-0.935-0.271-1.785-0.492-2.557-0.668s-1.736-0.412-2.898-0.711c-1.041-0.271-1.975-0.615-2.799-1.033
			c-0.824-0.42-1.555-0.967-2.189-1.644c-0.622-0.661-1.104-1.442-1.449-2.342s-0.518-1.938-0.518-3.112
			c0-2.447,0.953-4.498,2.858-6.154c1.906-1.656,4.339-2.484,7.3-2.484c1.689,0,3.289,0.17,4.795,0.508
			c1.508,0.339,2.903,0.818,4.188,1.439v4.807h-0.304c-0.961-0.879-2.19-1.646-3.69-2.303c-1.501-0.654-3.075-0.982-4.726-0.982
			c-1.865,0-3.372,0.437-4.521,1.308c-1.148,0.873-1.724,2.018-1.724,3.438c0,1.285,0.338,2.306,1.015,3.063
			c0.676,0.756,1.655,1.311,2.939,1.662c0.852,0.229,1.893,0.489,3.123,0.78c1.229,0.291,2.25,0.558,3.062,0.802
			c2.082,0.635,3.603,1.596,4.563,2.879c0.959,1.285,1.438,2.865,1.438,4.744c0,1.176-0.239,2.338-0.72,3.487
			c-0.479,1.148-1.152,2.121-2.018,2.92c-0.974,0.88-2.071,1.556-3.295,2.027C233.503,295.112,231.974,295.348,230.135,295.348z"/>
	</g>
	<g>
		<g>
			<g>
				<g>
					<path d="M107.943,61.417c8.846,2.871,12.986,9.027,16.388,15.781c4.113,8.169,8.662,15.873,16.379,21.329
						c4.239,2.998,4.059,6.987,1.271,11.129c-3.5,5.198-6.729,10.587-10.339,15.705c-2.804,3.976-6.04,6.473-11.658,4.191
						c-9.011-3.661-18.33-6.566-28.245-10.045c1.282,1.765,2.517,2.776,2.843,4.026c2.651,10.106,10.625,11.448,19.255,12.322
						c7.79,0.787,15.49,2.69,23.281,3.08c2.445,0.122,5.451-2.7,7.484-4.851c2.166-2.291,3.42-5.428,5.188-8.119
						c3.447-5.253,8.742-6.896,14.564-6.496c7.817,0.533,11.277,7.441,7.668,14.487c-0.564,1.104-0.681,2.438-1.082,3.957
						c-3.373-0.482-6.522-0.934-9.941-1.421c-2.105,4.184-4.135,8.309-6.252,12.387c-2.158,4.157-5.43,6-10.313,5.79
						c-7.629-0.33-15.284-0.088-22.998,0.471c7.863,4.781,14.873,10.726,25.544,6.369c7.728-3.156,16.345-1.777,24.14,1.623
						c5.774,2.521,6.72,8.545,2.739,13.434c-2.053,2.521-3.613,5.439-6.766,10.281c-0.845-2.027-1.367-3.309-1.918-4.582
						c-2.744-6.338-8.152-7.471-13.507-5.106c-7.632,3.366-14.29,0.899-21.373-1.193c-8.093-2.393-16.34-4.264-24.132-6.262
						c-4.627,6.539-3.389,11.61,0.742,17.268c3.813,5.221,5.647,11.885,9.453,17.111c2.112,2.897,6.256,4.938,9.881,5.961
						c5.339,1.506,11.039,1.707,16.57,2.563c5.598,0.863,10.606,6.711,8.246,11.354c-1.465,2.879-3.455,8.022-8.893,7.662
						c-0.492-0.031-1.135,0.836-1.555,1.397c-1.149,1.539-2.219,3.14-3.361,4.771c-0.748-0.66-1.178-0.851-1.227-1.109
						c-2.098-11.117-3.473-12.158-14.372-9.932c-3.531,0.721-6.941,2.037-10.396,3.117c-5.967,1.862-7.369,1.037-8.631-5.195
						c-0.238-1.182-0.707-2.437-0.526-3.568c1.453-9.076-5.897-13.237-9.96-19.248c-3.282,6.031-6.399,11.605-9.36,17.263
						c-2.099,4.01-0.005,6.299,3.509,8.045c5.159,2.563,10.322,5.145,15.337,7.979c6.728,3.806,7.396,7.529,2.616,14.916
						c-1.078-1.539-2.038-2.91-3.205-4.578c-0.865,2.199-1.686,4.281-2.948,7.492c-1.687-2.682-2.852-4.535-4.019-6.391
						c-0.809,2.141-1.618,4.285-3.032,8.031c-1.858-2.974-3.368-4.521-3.873-6.353c-1.629-5.906-5.879-7.772-11.33-7.902
						c-3.016-0.071-6.046,0.14-9.062,0.347c-4.94,0.334-8.68-0.599-7.495-6.185c-8.983-1.535-17.56-3.002-27.58-4.713
						c-13.41,8.654-25.791,5.451-31.699-11.852c2.463-0.451,4.897-0.92,7.34-1.338c6.546-1.111,7.781-3.029,5.382-9.384
						c-2.342-6.207-4.818-12.385-7.629-18.395c-14.29-30.568,7.646-78.165,43.657-85.607c1.531-0.315,2.972-2.01,4.06-3.377
						c4.461-5.604,8.768-11.332,12.947-16.773C53.881,81.854,42,82.103,31.028,79.062C20.61,76.174,11.145,69.846,1.26,65.033
						c0.012-0.633,0.023-1.263,0.035-1.893c5.869-2.074,11.641-4.508,17.629-6.144c11.52-3.146,23.046-6.543,34.795-8.495
						c9.067-1.507,18.317-0.373,25.922,7.551C82.144,30.347,95.852,12.931,117.204,0c0.645,6.563,1.235,12.857,1.891,19.148
						c0.373,3.569,0.923,7.119,1.268,10.691C121.537,41.984,117.819,52.372,107.943,61.417z M134.194,167.645
						c0.193-0.434,0.39-0.867,0.584-1.297c-1.623-1.135-3.146-2.453-4.883-3.373c-5.693-3.018-11.345-6.154-17.231-8.748
						c-7.112-3.135-11.929-7.963-13.389-15.719c-2.964-15.745-16.569-22.41-27.712-30.127c-7.779-5.387-18.433-4.444-28.109-1.187
						C13.02,117.44-5.254,159.508,6.503,186.066c2.441,5.521,4.891,11.052,6.966,16.713c1.222,3.332,2.831,7.156,2.192,10.343
						c-0.545,2.717-4.05,4.844-7.68,8.793c5.843-0.504,11.805,0.778,14.74-1.627c7.312-5.988,12.889-3.425,19.028,0.932
						c0.971,0.689,2.13,1.139,3.243,1.598c13.078,5.396,24.563-2.229,23.99-16.43c-0.289-7.184-1.634-14.387-3.147-21.441
						c-1.252-5.836-3.449-11.467-5.281-17.354c1.646-0.967,3.094-1.66,4.362-2.592c4.741-3.486,8.166-2.924,11.944,2.063
						c7.898,10.426,16.503,20.316,24.787,30.449c2.375,2.906,4.649,5.891,7.176,9.098c2.023-1.561,3.554-2.741,5.899-4.553
						c-10.968-15.924-21.26-31.801-32.54-46.942c-8.9-11.947-18.878-12.456-29.73-2.066c-3.766,3.609-6.872,8.563-8.599,13.494
						c-2.436,6.957-3.529,14.422-4.771,21.742c-0.815,4.807-0.881,9.741-1.394,15.971c-2.809-2.094-4.719-3.121-6.122-4.625
						c-16.53-17.709-15.829-48.332,1.088-65.518c15.979-16.229,44.423-16.03,56.439,5.485c2.357,4.218,4.626,8.49,7.154,12.601
						c1.007,1.635,2.346,3.586,3.986,4.223c10.133,3.928,20.383,7.549,30.627,11.178
						C131.855,167.947,133.08,167.645,134.194,167.645z M86.732,95.92c-7.905,8.14,3.785,16.641,16.652,18.172
						c-4.062-5.115-4.062-5.115-1.765-8.574c4.147,7.021,27.809,13.849,31.299,10.486c-2.196-3.779-4.467-7.069-5.893-10.692
						c-0.265-0.679,2.857-2.688,3.918-3.638c0.181,3.187-0.559,6.371,0.6,7.387c2.875,2.521,6.836,2.446,8.668-1.329
						c0.915-1.887,0.505-6.069-0.897-7.152c-8.107-6.261-12.914-14.699-17.654-23.445c-8.287-15.288-27.513-19.262-41.765-9.101
						c-2.479,1.768-5.225,3.167-8.461,5.104c-0.52-2.441-0.899-3.554-0.977-4.686c-0.535-7.866-3.558-11.157-11.063-9.387
						c-13.717,3.237-27.176,7.563-41.557,11.667c8.192,5.167,16.389,8.283,25.384,8.634c8.897,0.344,17.818,0.073,28.213,0.073
						C65.676,87,60.917,93.249,55.762,100.016c6.174,1.216,11.395,2.243,15.832,3.117c2.102-3.992,3.989-7.469,5.765-11.003
						c0.692-1.38,1.536-2.869,1.614-4.345c0.769-14.661,13.544-24.348,27.499-20.552c4.88,1.328,8.429,3.813,6.896,9.977
						c-0.433,1.743,0.185,3.926,0.83,5.723c2.765,7.684,1.243,13.405-4.891,17.505c-6.563,4.387-13.003,3.971-18.789-1.203
						C89.354,98.195,88.17,97.176,86.732,95.92z M108.083,10.24c-16.163,8.026-29.924,38.13-23.39,50.425
						c2.307-0.422,4.675-0.867,7.049-1.287c7.482-1.323,15.714-7.85,16.146-14.642C108.604,33.388,108.083,21.958,108.083,10.24z
						 M73.364,142.182c-5.408-6.025-12.186-7.301-19.903-5.681c-18.64,3.911-27.465,37.104-18.989,50.333
						C39.246,164.699,42.806,141.821,73.364,142.182z M138.035,215.301c-7.371-2.549-14.215-4.98-21.119-7.227
						c-0.988-0.322-2.357,0.02-3.396,0.438c-10.082,4.062-11.89,9.158-6.979,20.014c6.322-1.543,12.648-4.008,19.103-4.405
						C132.498,223.697,135.315,219.633,138.035,215.301z M157.788,121.114c-3.214,3.563-5.648,5.979-7.743,8.66
						c-2.087,2.672-3.221,6.597-5.853,8.236c-5.814,3.626-4.902,8.389-4.256,13.474c8.07,1.523,9.746,1.183,12.457-3.193
						C157.127,140.652,160.61,132.651,157.788,121.114z M138.661,164.857c-0.361,2.597-0.484,3.586-0.641,4.572
						c-1.203,7.621,0.875,9.258,8.519,6.762c2.084-0.682,4.28-1.916,6.31-1.715c8.166,0.81,10.313-4.776,13.301-12.444
						C156.226,163.051,147.5,163.949,138.661,164.857z M61.563,236.209c0.14,0.68,0.279,1.358,0.421,2.037
						c2.051,0,4.103-0.043,6.152,0.01c4.198,0.111,9.069-1.047,12.455,0.684c7.342,3.759,11.239-0.959,16.802-4.069
						c-6.87-3.572-12.864-6.689-18.752-9.752C73.397,228.523,67.479,232.367,61.563,236.209z M100.237,99.496
						c5.39,0.07,11.316-5.01,11.337-9.718c0.026-5.975-4.853-11.232-10.422-11.235c-5.936-0.002-10.763,4.466-10.782,9.979
						C90.349,94.454,94.82,99.425,100.237,99.496z M135.858,144.958c-1.596-4.131-21.782-8.277-34.563-7.417
						c2.833,3.096,4.677,6.955,6.809,7.121C117.08,145.362,126.143,144.958,135.858,144.958z M109.352,75.528
						c-3.562-5.772-12.248-6.572-18.731-2.226c-6.2,4.155-8.453,10.063-5.412,14.195C89.34,75.946,95.654,72.672,109.352,75.528z
						 M82.994,213.727c7.677-11.518,7.271-14.858-2.86-22.578C81.094,198.734,82.016,206.006,82.994,213.727z M27.472,57.593
						c2.17,7.003,3.665,7.462,10.057,3.522c-0.736-1.682-1.491-3.404-2.296-5.241C32.486,56.483,30.218,56.986,27.472,57.593z
						 M48.172,52.078c-9.144,1.93-9.144,1.93-5.249,8.049C45.824,58.32,52.279,59.427,48.172,52.078z M15.702,61.254
						c2.077,6,5.126,5.47,8.919,2.715C23.574,57.049,20.029,58.859,15.702,61.254z M110.487,42.972
						c7.642,2.504,7.794-0.874,7.493-4.693c-0.562-0.526-1.121-1.056-1.684-1.583C114.58,38.552,112.862,40.407,110.487,42.972z
						 M115.273,48.796c-0.497-0.711-0.997-1.423-1.495-2.134c-1.728,1.396-3.803,2.548-5.034,4.294
						c-0.588,0.832,0.426,2.793,1.036,5.858C112.403,52.986,113.839,50.891,115.273,48.796z M79.858,145.847
						c3.269-2.071,4.715-2.987,7.813-4.952c-3.265-1.229-5.224-1.968-7.182-2.705C80.321,140.231,80.154,142.271,79.858,145.847z"/>
				</g>
			</g>
		</g>
		<g>
			<path d="M267.082,225.158c0,1.748-1.624,3.163-3.63,3.163H185.71c-2.006,0-3.631-1.415-3.631-3.163l6.05-26.064
				c0-1.746,1.626-3.164,3.632-3.164h65.643c2.006,0,3.63,1.418,3.63,3.164L267.082,225.158z"/>
		</g>
		<path d="M242.995,165.205l-19.592-84.503h-20.439V36.526c0-1.124-1.585-2.353-3.163-3.63l-15.821-12.654v136.933l15.821-11.445
			c2.013-1.578,3.163-1.625,3.163-3.63v-47.18h12.575l16.388,69.584c-0.519-0.007-1.041-0.011-1.566-0.011
			c-17.207,0-31.156,3.712-31.156,8.291c0,4.578,13.949,8.291,31.156,8.291c17.208,0,31.158-3.713,31.158-8.291
			C261.519,169.402,253.905,166.494,242.995,165.205z"/>
	</g>
</g>
</svg>
