<?xml version="1.0" encoding="utf-8"?>
<!-- Generator: Adobe Illustrator 16.0.0, SVG Export Plug-In . SVG Version: 6.00 Build 0)  -->
<!DOCTYPE svg PUBLIC "-//W3C//DTD SVG 1.1//EN" "http://www.w3.org/Graphics/SVG/1.1/DTD/svg11.dtd">
<svg version="1.1" id="Capa_1" xmlns="http://www.w3.org/2000/svg" xmlns:xlink="http://www.w3.org/1999/xlink" x="0px" y="0px"
	 width="133.13px" height="132.6px" viewBox="0 0 133.13 132.6" enable-background="new 0 0 133.13 132.6" xml:space="preserve">
<g>
	<ellipse fill-rule="evenodd" clip-rule="evenodd" cx="66.259" cy="66.385" rx="66.566" ry="66.305"/>
	<g>
		<path fill-rule="evenodd" clip-rule="evenodd" fill="#FFFFFF" d="M97.617,27.26c-1.489,0-2.826-0.025-4.161,0.023
			c-0.235,0.008-0.522,0.288-0.681,0.516c-4.099,5.904-8.188,11.812-12.271,17.728C75.747,52.421,71,59.318,66.249,66.216
			c-0.111,0.163-0.2,0.343-0.36,0.614c0.345,0.05,0.581,0.108,0.815,0.111c0.814,0.012,1.632-0.023,2.445,0.016
			c0.539,0.025,0.878-0.159,1.189-0.605c6.628-9.5,13.268-18.99,19.903-28.483c2.304-3.294,4.6-6.593,6.899-9.893
			C97.281,27.775,97.412,27.571,97.617,27.26z"/>
		<path fill-rule="evenodd" clip-rule="evenodd" fill="#FFFFFF" d="M34.9,27.258c0.195,0.29,0.317,0.476,0.444,0.657
			c8.961,12.825,17.924,25.65,26.876,38.482c0.305,0.437,0.599,0.631,1.17,0.574c0.848-0.084,1.71-0.014,2.567-0.035
			c0.191-0.005,0.38-0.118,0.571-0.182c-0.068-0.184-0.102-0.391-0.209-0.549c-1.076-1.585-2.158-3.167-3.251-4.741
			C55.266,50.223,47.458,38.985,39.662,27.74c-0.24-0.347-0.478-0.501-0.907-0.49C37.522,27.279,36.29,27.258,34.9,27.258z"/>
	</g>
	<g>
		<path fill-rule="evenodd" clip-rule="evenodd" fill="#FFFFFF" d="M97.617,105.639c-1.489,0-2.826,0.025-4.161-0.024
			c-0.235-0.009-0.522-0.286-0.681-0.516c-4.099-5.903-8.188-11.814-12.271-17.729C75.747,80.478,71,73.578,66.249,66.682
			c-0.111-0.163-0.2-0.341-0.36-0.614c0.345-0.049,0.581-0.108,0.815-0.111c0.814-0.012,1.632,0.022,2.445-0.015
			c0.539-0.026,0.878,0.16,1.189,0.605c6.628,9.499,13.268,18.99,19.903,28.481c2.304,3.295,4.6,6.596,6.899,9.894
			C97.281,105.124,97.412,105.329,97.617,105.639z"/>
		<path fill-rule="evenodd" clip-rule="evenodd" fill="#FFFFFF" d="M34.9,105.642c0.195-0.29,0.317-0.476,0.444-0.658
			C44.306,92.157,53.269,79.332,62.221,66.5c0.305-0.436,0.599-0.631,1.17-0.574c0.848,0.083,1.71,0.014,2.567,0.037
			c0.191,0.004,0.38,0.117,0.571,0.18c-0.068,0.184-0.102,0.392-0.209,0.549c-1.076,1.587-2.158,3.167-3.251,4.742
			c-7.804,11.241-15.611,22.479-23.407,33.726c-0.24,0.345-0.478,0.5-0.907,0.489C37.522,105.621,36.29,105.642,34.9,105.642z"/>
	</g>
</g>
</svg>
