<?xml version="1.0" encoding="utf-8"?>
<!-- Generator: Adobe Illustrator 16.0.0, SVG Export Plug-In . SVG Version: 6.00 Build 0)  -->
<!DOCTYPE svg PUBLIC "-//W3C//DTD SVG 1.1//EN" "http://www.w3.org/Graphics/SVG/1.1/DTD/svg11.dtd">
<svg version="1.1" id="Capa_1" xmlns="http://www.w3.org/2000/svg" xmlns:xlink="http://www.w3.org/1999/xlink" x="0px" y="0px"
	 width="197.5px" height="198.85px" viewBox="0 0 197.5 198.85" enable-background="new 0 0 197.5 198.85" xml:space="preserve">
<g>
	<g>
		<path d="M118.643,199.014c-2.573,0-4.953-0.994-6.701-2.8L3.032,83.741c-3.652-3.772-3.398-9.964,0.565-13.803L72.635,3.086
			c1.945-1.884,4.471-2.922,7.111-2.922c2.574,0,4.954,0.994,6.702,2.8l108.911,112.474c1.805,1.863,2.719,4.354,2.572,7.012
			c-0.141,2.555-1.256,4.967-3.14,6.79l-69.036,66.852C123.81,197.976,121.284,199.014,118.643,199.014z M79.746,7.164
			c-0.801,0-1.618,0.347-2.242,0.951L8.466,74.967c-1.191,1.153-1.374,2.906-0.406,3.905L116.97,191.345
			c0.535,0.553,1.205,0.669,1.673,0.669c0.801,0,1.618-0.347,2.242-0.951l69.037-66.853c0.614-0.595,0.977-1.356,1.02-2.146
			c0.022-0.397-0.028-1.155-0.611-1.758L81.419,7.833C80.884,7.28,80.214,7.164,79.746,7.164z"/>
	</g>
	<g>
		<g>
			<g>
				<path fill-rule="evenodd" clip-rule="evenodd" d="M84.14,69.443c4.008-1.961,7.492-1.218,10.914-0.024
					C99.2,70.86,103.34,72,107.817,71.31c2.464-0.384,3.731,1.053,4.15,3.409c0.53,2.96,1.215,5.896,1.679,8.865
					c0.358,2.307,0.074,4.247-2.621,5.334c-4.33,1.743-8.512,3.852-13.091,5.961c1.031,0.182,1.796,0.116,2.322,0.438
					c4.287,2.602,7.485,0.405,10.749-2.175c2.95-2.327,6.239-4.241,9.056-6.705c0.885-0.772,0.979-2.749,0.964-4.17
					c-0.02-1.513-0.633-3.012-0.922-4.526c-0.563-2.964,0.715-5.297,2.856-7.101c2.872-2.425,6.369-1.198,7.476,2.436
					c0.175,0.568,0.579,1.068,0.946,1.727c-1.322,0.956-2.56,1.854-3.901,2.827c0.669,2.144,1.346,4.243,1.977,6.354
					c0.643,2.154,0.129,3.882-1.624,5.437c-2.74,2.432-5.299,5.069-7.772,7.836c4.307-0.975,8.708-1.263,10.932-6.327
					c1.613-3.666,5.044-6.064,8.866-7.493c2.832-1.056,5.167,0.704,5.424,3.718c0.136,1.552,0.57,3.08,1.1,5.802
					c-0.97-0.417-1.575-0.685-2.192-0.939c-3.058-1.271-5.3,0.143-6.358,2.744c-1.507,3.706-4.628,5.078-7.765,6.721
					c-3.591,1.874-7.058,3.979-10.411,5.891c0.588,3.799,2.705,5.134,6.018,5.705c3.056,0.528,5.909,2.216,8.967,2.745
					c1.693,0.296,3.804-0.384,5.396-1.241c2.344-1.261,4.374-3.094,6.567-4.642c2.218-1.57,5.896-1.228,6.631,1.16
					c0.455,1.481,1.484,3.921-0.508,5.609c-0.183,0.152-0.114,0.665-0.07,1c0.117,0.916,0.281,1.822,0.432,2.769
					c-0.477,0.02-0.687,0.099-0.791,0.023c-4.433-3.132-5.254-3.033-8.27,1.372c-0.977,1.426-1.713,3.017-2.545,4.544
					c-1.434,2.632-2.193,2.815-4.708,1.086c-0.477-0.326-1.059-0.602-1.373-1.054c-2.525-3.616-6.447-2.597-9.854-3.313
					c0.881,3.174,1.664,6.136,2.533,9.074c0.613,2.083,2.099,2.17,3.891,1.602c2.635-0.836,5.274-1.668,7.951-2.364
					c3.589-0.934,5.061,0.127,5.877,4.27c-0.886-0.171-1.673-0.323-2.631-0.51c0.435,1.047,0.846,2.038,1.481,3.566
					c-1.475-0.364-2.495-0.612-3.52-0.862c0.438,1.01,0.875,2.019,1.638,3.78c-1.633-0.404-2.672-0.438-3.455-0.897
					c-2.531-1.493-4.618-0.721-6.543,1.055c-1.063,0.98-2.036,2.065-3.009,3.142c-1.592,1.765-3.191,2.691-4.646,0.372
					c-3.612,2.466-7.056,4.822-11.082,7.575c-1.736,7.456-7.074,10.482-14.882,6.488c0.696-0.978,1.382-1.952,2.084-2.909
					c1.884-2.565,1.671-3.641-1.276-5.029c-2.879-1.36-5.791-2.664-8.766-3.799c-15.125-5.772-23.44-29.498-13.509-44.08
					c0.424-0.619,0.355-1.685,0.273-2.519c-0.333-3.419-0.759-6.829-1.133-10.103c-4.504,3.539-8.519,7.588-13.313,10.2
					c-4.554,2.479-9.929,3.454-14.946,5.097c-0.204-0.227-0.41-0.447-0.617-0.669c1.332-2.672,2.512-5.436,4.028-7.997
					c2.924-4.929,5.763-9.945,9.163-14.537c2.623-3.545,6.19-6.239,11.455-6.047c-7.713-9.697-8.8-20.272-5.749-31.856
					c2.411,2.048,4.717,4.023,7.039,5.973c1.319,1.105,2.693,2.146,4.006,3.263C82.344,58.211,84.527,63.032,84.14,69.443z
					 M128.632,97.309c-0.078-0.213-0.158-0.426-0.234-0.64c-0.936,0.149-1.902,0.205-2.806,0.466
					c-2.97,0.859-5.964,1.662-8.861,2.731c-3.497,1.294-6.768,1.234-9.858-0.95c-6.274-4.442-13.188-2.199-19.606-1.144
					c-4.479,0.735-7.836,4.617-10.086,8.969c-7.078,13.686,0.659,34.287,13.572,39.521c2.685,1.089,5.371,2.179,7.977,3.441
					c1.535,0.736,3.366,1.521,4.206,2.833c0.72,1.116,0.221,3.018,0.285,5.592c1.852-2.124,4.333-3.672,4.541-5.479
					c0.521-4.503,3.303-5.481,6.872-6.026c0.564-0.088,1.112-0.321,1.651-0.533c6.308-2.503,7.725-8.962,2.79-13.666
					c-2.495-2.383-5.365-4.415-8.238-6.342c-2.382-1.596-5.017-2.803-7.609-4.223c0.24-0.881,0.509-1.605,0.636-2.348
					c0.472-2.786,1.843-3.735,4.807-3.274c6.202,0.959,12.469,1.5,18.706,2.229c1.786,0.209,3.566,0.479,5.511,0.742
					c0.174-1.216,0.309-2.13,0.513-3.539c-9.092-1.83-17.938-3.87-26.881-5.328c-7.055-1.149-10.662,2.004-10.94,9.208
					c-0.093,2.501,0.49,5.246,1.541,7.521c1.481,3.208,3.594,6.148,5.606,9.088c1.322,1.926,2.948,3.651,4.846,5.971
					c-1.665,0.215-2.666,0.497-3.652,0.447c-11.607-0.592-21.582-11.382-21.481-22.952c0.094-10.928,9.965-20.344,21.288-16.938
					c2.222,0.666,4.428,1.384,6.669,1.957c0.896,0.228,2.007,0.453,2.786,0.126c4.803-2.026,9.544-4.198,14.287-6.363
					C127.926,98.195,128.246,97.683,128.632,97.309z M88.337,88.416c-0.008,5.444,6.858,4.474,11.807,0.712
					c-3.106-0.412-3.106-0.412-3.471-2.37c3.772,1.038,14.209-4.502,14.29-6.828c-2.016-0.569-3.899-0.942-5.598-1.72
					c-0.317-0.143,0.086-1.88,0.138-2.56c1.125,1.039,1.932,2.383,2.669,2.344c1.833-0.088,3.175-1.434,2.546-3.345
					c-0.314-0.958-1.851-2.264-2.696-2.168c-4.883,0.545-9.354-0.759-13.908-2.194c-7.958-2.508-15.913,2.539-17.435,10.796
					c-0.267,1.435-0.746,2.835-1.214,4.582c-0.996-0.667-1.498-0.927-1.901-1.291c-2.81-2.533-4.948-2.657-6.947,0.456
					c-3.646,5.689-6.845,11.674-10.432,17.887c4.546-0.951,8.414-2.611,11.627-5.492c3.186-2.85,6.171-5.921,9.755-9.389
					c0.536,4.529,0.979,8.271,1.461,12.328c2.533-1.645,4.677-3.03,6.499-4.212c-0.608-2.076-1.117-3.905-1.683-5.716
					c-0.225-0.707-0.428-1.504-0.894-2.037c-4.625-5.31-3.454-12.913,2.625-16.257c2.126-1.172,4.178-1.502,5.704,1.137
					c0.432,0.748,1.374,1.292,2.195,1.698c3.518,1.725,4.903,4.204,4.155,7.664c-0.798,3.702-3.161,5.708-6.879,5.854
					C90.005,88.326,89.255,88.368,88.337,88.416z M67.118,51.752c-2.896,8.161,2.401,23.131,8.758,25.188
					c0.652-0.914,1.321-1.858,1.999-2.795c2.138-2.951,2.798-7.948,0.682-10.435C75.018,59.56,71.024,55.794,67.118,51.752z
					 M99.164,108.825c-3.876-0.271-6.64,1.548-8.76,4.682c-5.12,7.564,2.914,21.955,10.248,23.688
					C94.913,127.972,88.508,118.896,99.164,108.825z M145.853,112.46c-3.389,1.58-6.561,3.023-9.691,4.555
					c-0.449,0.219-0.805,0.792-1.022,1.282c-2.123,4.762-1.044,7.124,4.271,9.229c1.665-2.643,3.022-5.603,5.116-7.892
					C146.747,117.203,146.363,114.861,145.853,112.46z M121.242,73.396c0.082,2.3,0.048,3.948,0.221,5.57
					c0.169,1.616,1.088,3.351,0.73,4.792c-0.796,3.191,1.106,4.527,3.026,6.064c3.291-2.167,3.756-2.843,3.229-5.256
					C127.534,80.354,126.064,76.432,121.242,73.396z M129.242,94.86c0.74,1.016,1.029,1.397,1.305,1.789
					c2.127,3.028,3.391,2.902,5.191-0.511c0.492-0.93,0.839-2.089,1.604-2.695c3.085-2.445,1.96-5.088,0.432-8.729
					C134.694,88.378,131.984,91.599,129.242,94.86z M126.465,145.18c0.273,0.189,0.546,0.377,0.823,0.563
					c0.707-0.685,1.403-1.385,2.124-2.05c1.485-1.363,2.778-3.386,4.522-3.92c3.786-1.153,3.556-4.079,4.437-7.008
					c-3.563,1.061-6.669,1.985-9.72,2.893C127.979,138.584,127.222,141.883,126.465,145.18z M94.189,85.143
					c1.88-1.771,2.23-5.5,0.665-7.13c-1.983-2.069-5.421-2.256-7.342-0.399c-2.049,1.98-2.221,5.131-0.388,7.038
					C89.097,86.705,92.298,86.926,94.189,85.143z M121.634,88.934c-1.926-0.892-10.27,4.412-14.388,8.974
					c2.009,0.123,3.933,0.84,4.722,0.184C115.296,95.337,118.284,92.174,121.634,88.934z M89.335,73.841
					c-3.154-0.803-6.418,1.82-7.204,5.481c-0.75,3.502,0.445,6.289,2.873,6.698C82.574,80.659,83.659,77.427,89.335,73.841z
					 M126.353,130.278c-1.197-6.532-2.45-7.548-8.519-6.828C120.697,125.744,123.438,127.944,126.353,130.278z M55.122,94.973
					c3.083,1.689,3.754,1.352,4.641-2.14c-0.814-0.335-1.648-0.675-2.54-1.041C56.479,92.916,55.866,93.848,55.122,94.973z
					 M60.418,86.165c-2.509,3.716-2.509,3.716,0.876,4.524C61.689,89.101,64.286,87.328,60.418,86.165z M52.286,100.162
					c2.717,1.374,3.592,0.175,3.98-2.04C53.594,96.085,52.977,97.893,52.286,100.162z M78.865,62.235
					c3.471-1.686,2.396-2.901,1.018-4.118c-0.37,0.006-0.74,0.011-1.107,0.016C78.801,59.345,78.828,60.56,78.865,62.235z
					 M82.459,62.647c-0.408-0.081-0.817-0.157-1.229-0.239c-0.13,1.061-0.461,2.151-0.305,3.162
					c0.077,0.484,1.081,0.819,2.313,1.676C82.864,65.048,82.662,63.848,82.459,62.647z M102.626,107.923
					c0.436-1.806,0.628-2.604,1.042-4.313c-1.535,0.662-2.457,1.063-3.379,1.463C100.913,105.832,101.533,106.589,102.626,107.923z"
					/>
			</g>
		</g>
	</g>
</g>
</svg>
