<?xml version="1.0" encoding="utf-8"?>
<!-- Generator: Adobe Illustrator 16.0.0, SVG Export Plug-In . SVG Version: 6.00 Build 0)  -->
<!DOCTYPE svg PUBLIC "-//W3C//DTD SVG 1.1//EN" "http://www.w3.org/Graphics/SVG/1.1/DTD/svg11.dtd">
<svg version="1.1" id="Capa_1" xmlns="http://www.w3.org/2000/svg" xmlns:xlink="http://www.w3.org/1999/xlink" x="0px" y="0px"
	 width="124.5px" height="124.63px" viewBox="0 0 124.5 124.63" enable-background="new 0 0 124.5 124.63" xml:space="preserve">
<g>
	<path fill-rule="evenodd" clip-rule="evenodd" d="M124.381,0.021c0.041,0.646,0.098,1.152,0.098,1.658
		c0.01,18.296,0.014,36.591,0.014,54.887c0,2.629-0.008,2.624-2.65,2.642c-15.563,0.113-31.123,0.212-46.686,0.353
		c-5.455,0.05-10.912,0.164-16.367,0.331c-1.58,0.049-2.172-0.516-2.172-2.091c0.027-15.45,0.021-30.899,0.004-46.349
		c0-1.232,0.385-1.902,1.732-2.092c7.101-1.004,14.197-2.066,21.287-3.146c5.9-0.898,11.781-1.913,17.688-2.763
		c6.135-0.884,12.295-1.626,18.445-2.441c2.381-0.315,4.758-0.667,7.139-0.98C123.354-0.03,123.811,0.021,124.381,0.021z"/>
	<path fill-rule="evenodd" clip-rule="evenodd" d="M124.479,124.631c-3.67-0.52-6.971-0.982-10.275-1.454
		c-7.781-1.108-15.564-2.218-23.346-3.329c-4.523-0.646-9.041-1.337-13.572-1.935c-5.811-0.766-11.631-1.451-17.444-2.193
		c-0.799-0.102-1.668-0.176-2.347-0.549c-0.48-0.266-0.986-1.014-0.988-1.549c-0.022-10.273,0.037-20.551,0.061-30.825
		c0.012-5.168-0.018-10.338-0.011-15.507c0.001-1.899,0.376-2.206,2.268-2.069c0.812,0.059,1.625,0.076,2.438,0.077
		c19.513,0.005,39.027,0.003,58.541,0.003c0.115,0,0.232,0,0.35,0c4.33-0.01,4.33-0.01,4.33,4.443
		c-0.002,17.481-0.004,34.962-0.004,52.443C124.479,122.868,124.479,123.549,124.479,124.631z"/>
	<path fill-rule="evenodd" clip-rule="evenodd" d="M51.25,60.028c-0.752-0.045-1.434-0.126-2.113-0.12
		C38.51,60,27.887,60.119,17.26,60.201c-5.17,0.04-10.34-0.016-15.508,0.049c-1.287,0.016-1.731-0.394-1.729-1.688
		c0.032-13.476,0.024-26.951,0.01-40.427C0,17.734,0.077,17.76,1.734,17.297c0.208-0.058,0.508-0.081,0.745-0.115
		c3.317-0.489,6.627-1.027,9.949-1.485c7.859-1.085,15.723-2.136,23.586-3.195c4.129-0.556,8.264-1.072,12.387-1.662
		c2.541-0.364,2.822-0.178,2.822,2.392c0.012,14.406,0.02,28.811,0.027,43.216C51.252,57.653,51.25,58.859,51.25,60.028z"/>
	<path fill-rule="evenodd" clip-rule="evenodd" d="M51.469,114.552c-5.908-0.879-11.779-1.793-17.664-2.625
		c-6.229-0.879-12.469-1.693-18.705-2.516c-4.53-0.596-9.063-1.157-13.596-1.729c-0.984-0.123-1.499-0.501-1.496-1.648
		c0.04-13.238,0.043-26.477,0.018-39.716C0.024,64.85,0.48,64.287,1.977,64.76c0.477,0.15,1.037,0.038,1.56,0.039
		c15.097,0.009,30.193,0.016,45.29,0.027c2.406,0.001,2.4,0.01,2.398,2.416c-0.002,15.328-0.01,30.657-0.002,45.985
		C51.223,113.667,51.381,114.106,51.469,114.552z"/>
</g>
</svg>
